<svg width="766.646" height="572.201" viewBox="53.1502 9.07459 574.985 429.151" xmlns="http://www.w3.org/2000/svg" xmlns:xlink="http://www.w3.org/1999/xlink" overflow="hidden"><g transform="matrix(1 0 0 -1 0 768)"><g stroke="#000000" stroke-linecap="round" stroke-linejoin="round" stroke-miterlimit="3" fill="none" fill-rule="evenodd" font-weight="400" baseline-shift="0"><g transform="matrix(0.6 0 0 0.6 0 768.2)"><g font-family="CalibriUnicode" font-size="13" transform="scale(1.19902 -1.19962)"><path d="M90 396C90 391 90 391 95 391L272 391C277 391 277 391 277 396L277 522C277 527 277 527 272 527L95 527C90 527 90 527 90 522L90 396" stroke="none" fill="#DFDFDF"/><path d="M87 393C87 388 87 388 92 388L269 388C274 388 274 388 274 393L274 519C274 524 274 524 269 524L92 524C87 524 87 524 87 519L87 393" stroke="none" stroke-width="2" fill="#CCFFCC"/><path d="M87 393C87 388 87 388 92 388L269 388C274 388 274 388 274 393L274 519C274 524 274 524 269 524L92 524C87 524 87 524 87 519L87 393M87 393C87 388 87 388 92 388L269 388C274 388 274 388 274 393L274 519C274 524 274 524 269 524L92 524C87 524 87 524 87 519L87 393" stroke-width="2"/><text stroke="none" fill="#000000" transform="translate(144 394)"><tspan x="0" y="13" dx="0">«</tspan><tspan x="7" y="13" dx="0">O</tspan><tspan x="16" y="13" dx="0">b</tspan><tspan x="23" y="13" dx="0">j</tspan><tspan x="26" y="13" dx="0">e</tspan><tspan x="33" y="13" dx="0">c</tspan><tspan x="38" y="13" dx="0 0">tt</tspan><tspan x="47" y="13" dx="0">y</tspan><tspan x="53" y="13" dx="0">p</tspan><tspan x="59" y="13" dx="0">e</tspan><tspan x="66" y="13" dx="0">»</tspan></text><text stroke="none" fill="#000000" font-weight="700" transform="translate(154 409)"><tspan x="0" y="13" dx="0">A</tspan><tspan x="8" y="13" dx="0">c</tspan><tspan x="14" y="13" dx="0 0">ti</tspan><tspan x="23" y="13" dx="0">v</tspan><tspan x="29" y="13" dx="0">i</tspan><tspan x="33" y="13" dx="0">t</tspan><tspan x="38" y="13" dx="0">e</tspan><tspan x="44" y="13" dx="0">i</tspan><tspan x="48" y="13" dx="0">t</tspan></text><path d="M87 429 274 429" stroke-width="2"/><text stroke="none" fill="#000000" transform="translate(100 437)"><tspan x="0" y="13" dx="0">«</tspan><tspan x="7" y="13" dx="0">A</tspan><tspan x="14" y="13" dx="0 0">tt</tspan><tspan x="23" y="13" dx="0">r</tspan><tspan x="27" y="13" dx="0">i</tspan><tspan x="30" y="13" dx="0">b</tspan><tspan x="37" y="13" dx="0">u</tspan><tspan x="43" y="13" dx="0">u</tspan><tspan x="50" y="13" dx="0">t</tspan><tspan x="54" y="13" dx="0">s</tspan><tspan x="60" y="13" dx="0">o</tspan><tspan x="67" y="13" dx="0">o</tspan><tspan x="73" y="13" dx="0">r</tspan><tspan x="78" y="13" dx="0">t</tspan><tspan x="82" y="13" dx="0">»</tspan></text><text stroke="none" fill="#2F4F4F" transform="translate(92 452)"><tspan x="0" y="13" dx="0">+</tspan></text><text stroke="none" fill="#2F4F4F" transform="translate(113 452)"><tspan x="0" y="13" dx="0">i</tspan><tspan x="3" y="13" dx="0">d</tspan><tspan x="10" y="13" dx="0">e</tspan><tspan x="17" y="13" dx="0">n</tspan><tspan x="23" y="13" dx="0 0">ti</tspan><tspan x="31" y="13" dx="0 0">fi</tspan><tspan x="38" y="13" dx="0">c</tspan><tspan x="44" y="13" dx="0">a</tspan><tspan x="51" y="13" dx="0 0">ti</tspan><tspan x="58" y="13" dx="0">e</tspan><tspan x="65" y="13" dx="0">:</tspan><tspan x="68" y="13" dx="0"> </tspan><tspan x="72" y="13" dx="0">N</tspan><tspan x="80" y="13" dx="0">E</tspan><tspan x="87" y="13" dx="0">N</tspan><tspan x="95" y="13" dx="0">3</tspan><tspan x="102" y="13" dx="0">6</tspan><tspan x="108" y="13" dx="0">1</tspan><tspan x="115" y="13" dx="0">0</tspan><tspan x="122" y="13" dx="0">I</tspan><tspan x="125" y="13" dx="0">D</tspan><tspan x="133" y="13" dx="0"> </tspan><tspan x="137" y="13" dx="0">{</tspan><tspan x="141" y="13" dx="0">i</tspan><tspan x="144" y="13" dx="0">d</tspan><tspan x="151" y="13" dx="0">}</tspan></text><text stroke="none" fill="#2F4F4F" transform="translate(92 467)"><tspan x="0" y="13" dx="0">+</tspan></text><text stroke="none" fill="#2F4F4F" transform="translate(113 467)"><tspan x="0" y="13" dx="0">naam: CharacterString</tspan></text><text stroke="none" fill="#2F4F4F" transform="translate(92 482)"><tspan x="0" y="13" dx="0">+</tspan></text><text stroke="none" fill="#2F4F4F" transform="translate(113 482)"><tspan x="0" y="13" dx="0">g</tspan><tspan x="7" y="13" dx="0">r</tspan><tspan x="11" y="13" dx="0">o</tspan><tspan x="18" y="13" dx="0">e</tspan><tspan x="24" y="13" dx="0">p</tspan><tspan x="31" y="13" dx="0">:</tspan><tspan x="34" y="13" dx="0"> </tspan><tspan x="38" y="13" dx="0">A</tspan><tspan x="45" y="13" dx="0">c</tspan><tspan x="51" y="13" dx="0 0">ti</tspan><tspan x="58" y="13" dx="0">v</tspan><tspan x="64" y="13" dx="0">i</tspan><tspan x="68" y="13" dx="0">t</tspan><tspan x="72" y="13" dx="0">e</tspan><tspan x="78" y="13" dx="0">i</tspan><tspan x="82" y="13" dx="0">t</tspan><tspan x="86" y="13" dx="0">e</tspan><tspan x="93" y="13" dx="0">n</tspan><tspan x="99" y="13" dx="0">g</tspan><tspan x="106" y="13" dx="0">r</tspan><tspan x="110" y="13" dx="0">o</tspan><tspan x="117" y="13" dx="0">e</tspan><tspan x="123" y="13" dx="0">p</tspan></text><path d="M88 32C88 27 88 27 93 27L307 27C312 27 312 27 312 32L312 178C312 183 312 183 307 183L93 183C88 183 88 183 88 178L88 32" stroke="none" fill="#DFDFDF"/><path d="M85 29C85 24 85 24 90 24L304 24C309 24 309 24 309 29L309 175C309 180 309 180 304 180L90 180C85 180 85 180 85 175L85 29" stroke="none" stroke-width="2" fill="#CCFFFF"/><path d="M85 29C85 24 85 24 90 24L304 24C309 24 309 24 309 29L309 175C309 180 309 180 304 180L90 180C85 180 85 180 85 175L85 29M85 29C85 24 85 24 90 24L304 24C309 24 309 24 309 29L309 175C309 180 309 180 304 180L90 180C85 180 85 180 85 175L85 29" stroke-width="2"/><text stroke="none" fill="#000000" transform="translate(161 30)"><tspan x="0" y="13" dx="0">«</tspan><tspan x="7" y="13" dx="0">O</tspan><tspan x="16" y="13" dx="0">b</tspan><tspan x="23" y="13" dx="0">j</tspan><tspan x="26" y="13" dx="0">e</tspan><tspan x="33" y="13" dx="0">c</tspan><tspan x="38" y="13" dx="0 0">tt</tspan><tspan x="47" y="13" dx="0">y</tspan><tspan x="53" y="13" dx="0">p</tspan><tspan x="59" y="13" dx="0">e</tspan><tspan x="66" y="13" dx="0">»</tspan></text><text stroke="none" fill="#000000" font-style="italic" font-weight="700" transform="translate(155 45)"><tspan x="0" y="13" dx="0">Juridische regel</tspan></text><path d="M85 65 309 65" stroke-width="2"/><text stroke="none" fill="#000000" transform="translate(98 73)"><tspan x="0" y="13" dx="0">«</tspan><tspan x="7" y="13" dx="0">A</tspan><tspan x="14" y="13" dx="0 0">tt</tspan><tspan x="23" y="13" dx="0">r</tspan><tspan x="27" y="13" dx="0">i</tspan><tspan x="30" y="13" dx="0">b</tspan><tspan x="37" y="13" dx="0">u</tspan><tspan x="43" y="13" dx="0">u</tspan><tspan x="50" y="13" dx="0">t</tspan><tspan x="54" y="13" dx="0">s</tspan><tspan x="60" y="13" dx="0">o</tspan><tspan x="67" y="13" dx="0">o</tspan><tspan x="73" y="13" dx="0">r</tspan><tspan x="78" y="13" dx="0">t</tspan><tspan x="82" y="13" dx="0">»</tspan></text><text stroke="none" fill="#2F4F4F" transform="translate(90 88)"><tspan x="0" y="13" dx="0">+</tspan></text><text stroke="none" fill="#2F4F4F" transform="translate(111 88)"><tspan x="0" y="13" dx="0">i</tspan><tspan x="3" y="13" dx="0">d</tspan><tspan x="10" y="13" dx="0">e</tspan><tspan x="17" y="13" dx="0">n</tspan><tspan x="23" y="13" dx="0 0">ti</tspan><tspan x="31" y="13" dx="0 0">fi</tspan><tspan x="38" y="13" dx="0">c</tspan><tspan x="44" y="13" dx="0">a</tspan><tspan x="51" y="13" dx="0 0">ti</tspan><tspan x="58" y="13" dx="0">e</tspan><tspan x="65" y="13" dx="0">:</tspan><tspan x="68" y="13" dx="0"> </tspan><tspan x="72" y="13" dx="0">N</tspan><tspan x="80" y="13" dx="0">E</tspan><tspan x="87" y="13" dx="0">N</tspan><tspan x="95" y="13" dx="0">3</tspan><tspan x="102" y="13" dx="0">6</tspan><tspan x="108" y="13" dx="0">1</tspan><tspan x="115" y="13" dx="0">0</tspan><tspan x="122" y="13" dx="0">I</tspan><tspan x="125" y="13" dx="0">D</tspan><tspan x="133" y="13" dx="0"> </tspan><tspan x="137" y="13" dx="0">{</tspan><tspan x="141" y="13" dx="0">i</tspan><tspan x="144" y="13" dx="0">d</tspan><tspan x="151" y="13" dx="0">}</tspan></text><text stroke="none" fill="#2F4F4F" transform="translate(90 103)"><tspan x="0" y="13" dx="0">+</tspan></text><text stroke="none" fill="#2F4F4F" transform="translate(111 103)"><tspan x="0" y="13" dx="0">i</tspan><tspan x="3" y="13" dx="0">d</tspan><tspan x="10" y="13" dx="0">e</tspan><tspan x="17" y="13" dx="0">a</tspan><tspan x="23" y="13" dx="0">l</tspan><tspan x="27" y="13" dx="0">i</tspan><tspan x="30" y="13" dx="0">s</tspan><tspan x="36" y="13" dx="0">a</tspan><tspan x="43" y="13" dx="0 0">ti</tspan><tspan x="50" y="13" dx="0">e</tspan><tspan x="57" y="13" dx="0">:</tspan><tspan x="60" y="13" dx="0"> </tspan><tspan x="63" y="13" dx="0">I</tspan><tspan x="67" y="13" dx="0">d</tspan><tspan x="73" y="13" dx="0">e</tspan><tspan x="80" y="13" dx="0">a</tspan><tspan x="87" y="13" dx="0">l</tspan><tspan x="90" y="13" dx="0">i</tspan><tspan x="93" y="13" dx="0">s</tspan><tspan x="99" y="13" dx="0">a</tspan><tspan x="106" y="13" dx="0 0">ti</tspan><tspan x="113" y="13" dx="0">e</tspan></text><text stroke="none" fill="#2F4F4F" transform="translate(90 118)"><tspan x="0" y="13" dx="0">+</tspan></text><text stroke="none" fill="#2F4F4F" transform="translate(111 118)"><tspan x="0" y="13" dx="0">thema: Thema [0..*]</tspan></text><path d="M662 442C662 437 662 437 667 437L857 437C862 437 862 437 862 442L862 548C862 553 862 553 857 553L667 553C662 553 662 553 662 548L662 442" stroke="none" fill="#DFDFDF"/><path d="M659 439C659 434 659 434 664 434L854 434C859 434 859 434 859 439L859 545C859 550 859 550 854 550L664 550C659 550 659 550 659 545L659 439" stroke="none" fill="#FFE4E1"/><path d="M659 439C659 434 659 434 664 434L854 434C859 434 859 434 859 439L859 545C859 550 859 550 854 550L664 550C659 550 659 550 659 545L659 439M659 439C659 434 659 434 664 434L854 434C859 434 859 434 859 439L859 545C859 550 859 550 854 550L664 550C659 550 659 550 659 545L659 439"/><text stroke="none" fill="#000000" transform="translate(723 440)"><tspan x="0" y="13" dx="0">«</tspan><tspan x="7" y="13" dx="0">O</tspan><tspan x="16" y="13" dx="0">b</tspan><tspan x="23" y="13" dx="0">j</tspan><tspan x="26" y="13" dx="0">e</tspan><tspan x="33" y="13" dx="0">c</tspan><tspan x="38" y="13" dx="0 0">tt</tspan><tspan x="47" y="13" dx="0">y</tspan><tspan x="53" y="13" dx="0">p</tspan><tspan x="59" y="13" dx="0">e</tspan><tspan x="66" y="13" dx="0">»</tspan></text><text stroke="none" fill="#000000" font-style="italic" font-weight="700" transform="translate(739 455)"><tspan x="0" y="13" dx="0">L</tspan><tspan x="6" y="13" dx="0">o</tspan><tspan x="13" y="13" dx="0">c</tspan><tspan x="18" y="13" dx="0">a</tspan><tspan x="25" y="13" dx="0 0">ti</tspan><tspan x="33" y="13" dx="0">e</tspan></text><path d="M659 475 859 475"/><text stroke="none" fill="#000000" transform="translate(672 483)"><tspan x="0" y="13" dx="0">«</tspan><tspan x="7" y="13" dx="0">A</tspan><tspan x="14" y="13" dx="0 0">tt</tspan><tspan x="23" y="13" dx="0">r</tspan><tspan x="27" y="13" dx="0">i</tspan><tspan x="30" y="13" dx="0">b</tspan><tspan x="37" y="13" dx="0">u</tspan><tspan x="43" y="13" dx="0">u</tspan><tspan x="50" y="13" dx="0">t</tspan><tspan x="54" y="13" dx="0">s</tspan><tspan x="60" y="13" dx="0">o</tspan><tspan x="67" y="13" dx="0">o</tspan><tspan x="73" y="13" dx="0">r</tspan><tspan x="78" y="13" dx="0">t</tspan><tspan x="82" y="13" dx="0">»</tspan></text><text stroke="none" fill="#2F4F4F" transform="translate(664 498)"><tspan x="0" y="13" dx="0">+</tspan></text><text stroke="none" fill="#2F4F4F" transform="translate(685 498)"><tspan x="0" y="13" dx="0">i</tspan><tspan x="3" y="13" dx="0">d</tspan><tspan x="10" y="13" dx="0">e</tspan><tspan x="17" y="13" dx="0">n</tspan><tspan x="23" y="13" dx="0 0">ti</tspan><tspan x="31" y="13" dx="0 0">fi</tspan><tspan x="38" y="13" dx="0">c</tspan><tspan x="44" y="13" dx="0">a</tspan><tspan x="51" y="13" dx="0 0">ti</tspan><tspan x="58" y="13" dx="0">e</tspan><tspan x="65" y="13" dx="0">:</tspan><tspan x="68" y="13" dx="0"> </tspan><tspan x="72" y="13" dx="0">N</tspan><tspan x="80" y="13" dx="0">E</tspan><tspan x="87" y="13" dx="0">N</tspan><tspan x="95" y="13" dx="0">3</tspan><tspan x="102" y="13" dx="0">6</tspan><tspan x="108" y="13" dx="0">1</tspan><tspan x="115" y="13" dx="0">0</tspan><tspan x="122" y="13" dx="0">I</tspan><tspan x="125" y="13" dx="0">D</tspan><tspan x="133" y="13" dx="0"> </tspan><tspan x="137" y="13" dx="0">{</tspan><tspan x="141" y="13" dx="0">i</tspan><tspan x="144" y="13" dx="0">d</tspan><tspan x="151" y="13" dx="0">}</tspan></text><text stroke="none" fill="#2F4F4F" transform="translate(664 513)"><tspan x="0" y="13" dx="0">+</tspan></text><text stroke="none" fill="#2F4F4F" transform="translate(685 513)"><tspan x="0" y="13" dx="0">noemer: CharacterString [0..1]</tspan></text><path d="M90 248C90 243 90 243 95 243L313 243C318 243 318 243 318 248L318 307C318 312 318 312 313 312L95 312C90 312 90 312 90 307L90 248" stroke="none" fill="#DFDFDF"/><path d="M87 245C87 240 87 240 92 240L310 240C315 240 315 240 315 245L315 304C315 309 315 309 310 309L92 309C87 309 87 309 87 304L87 245" stroke="none" fill="#CCFFFF"/><path d="M87 245C87 240 87 240 92 240L310 240C315 240 315 240 315 245L315 304C315 309 315 309 310 309L92 309C87 309 87 309 87 304L87 245M87 245C87 240 87 240 92 240L310 240C315 240 315 240 315 245L315 304C315 309 315 309 310 309L92 309C87 309 87 309 87 304L87 245"/><text stroke="none" fill="#000000" transform="translate(165 246)"><tspan x="0" y="13" dx="0">«</tspan><tspan x="7" y="13" dx="0">O</tspan><tspan x="16" y="13" dx="0">b</tspan><tspan x="23" y="13" dx="0">j</tspan><tspan x="26" y="13" dx="0">e</tspan><tspan x="33" y="13" dx="0">c</tspan><tspan x="38" y="13" dx="0 0">tt</tspan><tspan x="47" y="13" dx="0">y</tspan><tspan x="53" y="13" dx="0">p</tspan><tspan x="59" y="13" dx="0">e</tspan><tspan x="66" y="13" dx="0">»</tspan></text><text stroke="none" fill="#000000" font-weight="700" transform="translate(97 261)"><tspan x="0" y="13" dx="0">Juridische regel::Regel voor iedereen</tspan></text><path d="M343 290C343 285 343 285 348 285L656 285C661 285 661 285 661 290L661 411C661 416 661 416 656 416L348 416C343 416 343 416 343 411L343 290" stroke="none" fill="#DFDFDF"/><path d="M340 287C340 282 340 282 345 282L653 282C658 282 658 282 658 287L658 408C658 413 658 413 653 413L345 413C340 413 340 413 340 408L340 287" stroke="none" stroke-width="2" fill="#CCFFCC"/><path d="M340 287C340 282 340 282 345 282L653 282C658 282 658 282 658 287L658 408C658 413 658 413 653 413L345 413C340 413 340 413 340 408L340 287M340 287C340 282 340 282 345 282L653 282C658 282 658 282 658 287L658 408C658 413 658 413 653 413L345 413C340 413 340 413 340 408L340 287" stroke-width="2"/><text stroke="none" fill="#000000" transform="translate(463 288)"><tspan x="0" y="13" dx="0">«</tspan><tspan x="7" y="13" dx="0">O</tspan><tspan x="16" y="13" dx="0">b</tspan><tspan x="23" y="13" dx="0">j</tspan><tspan x="26" y="13" dx="0">e</tspan><tspan x="33" y="13" dx="0">c</tspan><tspan x="38" y="13" dx="0 0">tt</tspan><tspan x="47" y="13" dx="0">y</tspan><tspan x="53" y="13" dx="0">p</tspan><tspan x="59" y="13" dx="0">e</tspan><tspan x="66" y="13" dx="0">»</tspan></text><text stroke="none" fill="#000000" font-weight="700" transform="translate(420 303)"><tspan x="0" y="13" dx="0">A</tspan><tspan x="8" y="13" dx="0">c</tspan><tspan x="14" y="13" dx="0 0">ti</tspan><tspan x="23" y="13" dx="0">v</tspan><tspan x="29" y="13" dx="0">i</tspan><tspan x="33" y="13" dx="0">t</tspan><tspan x="38" y="13" dx="0">e</tspan><tspan x="44" y="13" dx="0">i</tspan><tspan x="48" y="13" dx="0">t</tspan><tspan x="53" y="13" dx="0">L</tspan><tspan x="58" y="13" dx="0">o</tspan><tspan x="66" y="13" dx="0">c</tspan><tspan x="72" y="13" dx="0">a</tspan><tspan x="78" y="13" dx="0 0">ti</tspan><tspan x="87" y="13" dx="0">e</tspan><tspan x="93" y="13" dx="0">a</tspan><tspan x="100" y="13" dx="0">a</tspan><tspan x="107" y="13" dx="0">n</tspan><tspan x="114" y="13" dx="0">d</tspan><tspan x="122" y="13" dx="0">u</tspan><tspan x="129" y="13" dx="0">i</tspan><tspan x="133" y="13" dx="0">d</tspan><tspan x="140" y="13" dx="0">i</tspan><tspan x="143" y="13" dx="0">n</tspan><tspan x="151" y="13" dx="0">g</tspan></text><path d="M340 323 658 323" stroke-width="2"/><text stroke="none" fill="#000000" transform="translate(353 331)"><tspan x="0" y="13" dx="0">«</tspan><tspan x="7" y="13" dx="0">A</tspan><tspan x="14" y="13" dx="0 0">tt</tspan><tspan x="23" y="13" dx="0">r</tspan><tspan x="27" y="13" dx="0">i</tspan><tspan x="30" y="13" dx="0">b</tspan><tspan x="37" y="13" dx="0">u</tspan><tspan x="43" y="13" dx="0">u</tspan><tspan x="50" y="13" dx="0">t</tspan><tspan x="54" y="13" dx="0">s</tspan><tspan x="60" y="13" dx="0">o</tspan><tspan x="67" y="13" dx="0">o</tspan><tspan x="73" y="13" dx="0">r</tspan><tspan x="78" y="13" dx="0">t</tspan><tspan x="82" y="13" dx="0">»</tspan></text><text stroke="none" fill="#2F4F4F" transform="translate(345 346)"><tspan x="0" y="13" dx="0">+</tspan></text><text stroke="none" fill="#2F4F4F" transform="translate(366 346)"><tspan x="0" y="13" dx="0">i</tspan><tspan x="3" y="13" dx="0">d</tspan><tspan x="10" y="13" dx="0">e</tspan><tspan x="17" y="13" dx="0">n</tspan><tspan x="23" y="13" dx="0 0">ti</tspan><tspan x="31" y="13" dx="0 0">fi</tspan><tspan x="38" y="13" dx="0">c</tspan><tspan x="44" y="13" dx="0">a</tspan><tspan x="51" y="13" dx="0 0">ti</tspan><tspan x="58" y="13" dx="0">e</tspan><tspan x="65" y="13" dx="0">:</tspan><tspan x="68" y="13" dx="0"> </tspan><tspan x="72" y="13" dx="0">N</tspan><tspan x="80" y="13" dx="0">E</tspan><tspan x="87" y="13" dx="0">N</tspan><tspan x="95" y="13" dx="0">3</tspan><tspan x="102" y="13" dx="0">6</tspan><tspan x="108" y="13" dx="0">1</tspan><tspan x="115" y="13" dx="0">0</tspan><tspan x="122" y="13" dx="0">I</tspan><tspan x="125" y="13" dx="0">D</tspan><tspan x="133" y="13" dx="0"> </tspan><tspan x="137" y="13" dx="0">{</tspan><tspan x="141" y="13" dx="0">i</tspan><tspan x="144" y="13" dx="0">d</tspan><tspan x="151" y="13" dx="0">}</tspan></text><text stroke="none" fill="#2F4F4F" transform="translate(345 361)"><tspan x="0" y="13" dx="0">+</tspan></text><text stroke="none" fill="#2F4F4F" transform="translate(366 361)"><tspan x="0" y="13" dx="0">a</tspan><tspan x="7" y="13" dx="0">c</tspan><tspan x="13" y="13" dx="0 0">ti</tspan><tspan x="20" y="13" dx="0">v</tspan><tspan x="26" y="13" dx="0">i</tspan><tspan x="29" y="13" dx="0">t</tspan><tspan x="33" y="13" dx="0">e</tspan><tspan x="40" y="13" dx="0">i</tspan><tspan x="43" y="13" dx="0">t</tspan><tspan x="48" y="13" dx="0">r</tspan><tspan x="52" y="13" dx="0">e</tspan><tspan x="58" y="13" dx="0">g</tspan><tspan x="65" y="13" dx="0">e</tspan><tspan x="72" y="13" dx="0">l</tspan><tspan x="75" y="13" dx="0">k</tspan><tspan x="81" y="13" dx="0">w</tspan><tspan x="90" y="13" dx="0">a</tspan><tspan x="97" y="13" dx="0">l</tspan><tspan x="100" y="13" dx="0">i</tspan><tspan x="103" y="13" dx="0 0">fi</tspan><tspan x="111" y="13" dx="0">c</tspan><tspan x="117" y="13" dx="0">a</tspan><tspan x="123" y="13" dx="0 0">ti</tspan><tspan x="131" y="13" dx="0">e</tspan><tspan x="138" y="13" dx="0">:</tspan><tspan x="141" y="13" dx="0"> </tspan><tspan x="144" y="13" dx="0">A</tspan><tspan x="152" y="13" dx="0">c</tspan><tspan x="158" y="13" dx="0 0">ti</tspan><tspan x="165" y="13" dx="0">v</tspan><tspan x="171" y="13" dx="0">i</tspan><tspan x="174" y="13" dx="0">t</tspan><tspan x="178" y="13" dx="0">e</tspan><tspan x="185" y="13" dx="0">i</tspan><tspan x="188" y="13" dx="0">t</tspan><tspan x="193" y="13" dx="0">r</tspan><tspan x="197" y="13" dx="0">e</tspan><tspan x="203" y="13" dx="0">g</tspan><tspan x="210" y="13" dx="0">e</tspan><tspan x="217" y="13" dx="0">l</tspan><tspan x="220" y="13" dx="0">k</tspan><tspan x="226" y="13" dx="0">w</tspan><tspan x="235" y="13" dx="0">a</tspan><tspan x="242" y="13" dx="0">l</tspan><tspan x="245" y="13" dx="0">i</tspan><tspan x="249" y="13" dx="0 0">fi</tspan><tspan x="256" y="13" dx="0">c</tspan><tspan x="262" y="13" dx="0">a</tspan><tspan x="269" y="13" dx="0 0">ti</tspan><tspan x="276" y="13" dx="0">e</tspan></text><text stroke="none" fill="#2F4F4F" transform="translate(345 376)"><tspan x="0" y="13" dx="0">+</tspan></text><text stroke="none" fill="#2F4F4F" transform="translate(366 376)"><tspan x="0" y="13" dx="0">s</tspan><tspan x="6" y="13" dx="0">p</tspan><tspan x="13" y="13" dx="0">e</tspan><tspan x="19" y="13" dx="0">c</tspan><tspan x="25" y="13" dx="0">i</tspan><tspan x="28" y="13" dx="0 0">fi</tspan><tspan x="36" y="13" dx="0">e</tspan><tspan x="43" y="13" dx="0">k</tspan><tspan x="48" y="13" dx="0">e</tspan><tspan x="55" y="13" dx="0">S</tspan><tspan x="61" y="13" dx="0">y</tspan><tspan x="67" y="13" dx="0">m</tspan><tspan x="77" y="13" dx="0">b</tspan><tspan x="83" y="13" dx="0">o</tspan><tspan x="90" y="13" dx="0">l</tspan><tspan x="93" y="13" dx="0">i</tspan><tspan x="97" y="13" dx="0">s</tspan><tspan x="103" y="13" dx="0">a</tspan><tspan x="109" y="13" dx="0 0">ti</tspan><tspan x="117" y="13" dx="0">e</tspan><tspan x="123" y="13" dx="0">:</tspan><tspan x="127" y="13" dx="0"> </tspan><tspan x="130" y="13" dx="0">C</tspan><tspan x="138" y="13" dx="0">h</tspan><tspan x="144" y="13" dx="0">a</tspan><tspan x="151" y="13" dx="0">r</tspan><tspan x="155" y="13" dx="0">a</tspan><tspan x="162" y="13" dx="0">c</tspan><tspan x="168" y="13" dx="0">t</tspan><tspan x="172" y="13" dx="0">e</tspan><tspan x="178" y="13" dx="0">r</tspan><tspan x="183" y="13" dx="0">S</tspan><tspan x="188" y="13" dx="0">t</tspan><tspan x="193" y="13" dx="0">r</tspan><tspan x="197" y="13" dx="0">i</tspan><tspan x="200" y="13" dx="0">n</tspan><tspan x="207" y="13" dx="0">g</tspan><tspan x="214" y="13" dx="0"> </tspan><tspan x="217" y="13" dx="0">[</tspan><tspan x="221" y="13" dx="0">0</tspan><tspan x="228" y="13" dx="0">.</tspan><tspan x="231" y="13" dx="0">.</tspan><tspan x="234" y="13" dx="0">1</tspan><tspan x="241" y="13" dx="0">]</tspan></text><path d="M310 97 755 97M755 97 755 434M755 434 749 419M755 434 761 419" stroke-width="2"/><path d="M494 414 494 490M494 490 659 490M659 490 644 496M659 490 644 484" stroke-width="2"/><path d="M193 240 193 181" stroke-width="2"/><path d="M199 197 187 197 193 181 199 197" stroke-width="2" fill="#F7DDB4"/><path d="M193 310 193 387M193 387 187 372M193 387 199 372"/><path d="M193 348 340 348" stroke-dasharray="7 4"/><path d="M106 525 106 574M106 574 160 574M160 574 160 525M160 525 166 540M160 525 154 540" stroke-width="2"/><path d="M198 525 198 574M198 574 257 574M257 574 257 525M257 525 263 540M257 525 251 540" stroke-width="2"/><g transform="matrix(1 0 0 -1 318 102)"><rect x="0" y="-10" width="13" height="10" stroke="none" fill="#FFFFFF"/></g><text stroke="none" fill="#000000" font-size="8" transform="translate(318 102)"><tspan x="0" y="8" dx="0">0..*</tspan></text><g transform="matrix(1 0 0 -1 761 390)"><rect x="0" y="-10" width="63" height="10" stroke="none" fill="#FFFFFF"/></g><text stroke="none" fill="#000000" font-size="8" transform="translate(761 390)"><tspan x="0" y="8" dx="0">+</tspan><tspan x="4.25" y="8" dx="0">l</tspan><tspan x="6.25" y="8" dx="0">o</tspan><tspan x="10.75" y="8" dx="0">c</tspan><tspan x="14" y="8" dx="0">a</tspan><tspan x="17.75" y="8" dx="0 0">ti</tspan><tspan x="22.5" y="8" dx="0">e</tspan><tspan x="26.5" y="8" dx="0">a</tspan><tspan x="30.25" y="8" dx="0">a</tspan><tspan x="34" y="8" dx="0">n</tspan><tspan x="38.25" y="8" dx="0">d</tspan><tspan x="42.5" y="8" dx="0">u</tspan><tspan x="46.75" y="8" dx="0">i</tspan><tspan x="48.75" y="8" dx="0">d</tspan><tspan x="53" y="8" dx="0">i</tspan><tspan x="55" y="8" dx="0">n</tspan><tspan x="59.25" y="8" dx="0">g</tspan></text><g transform="matrix(1 0 0 -1 761 400)"><rect x="0" y="-10" width="39" height="10" stroke="none" fill="#FFFFFF"/></g><text stroke="none" fill="#000000" font-size="8" transform="translate(761 400)"><tspan x="0" y="8" dx="0">«</tspan><tspan x="4" y="8" dx="0">R</tspan><tspan x="8.25" y="8" dx="0">e</tspan><tspan x="12" y="8" dx="0">l</tspan><tspan x="14" y="8" dx="0">a</tspan><tspan x="17.5" y="8" dx="0 0">ti</tspan><tspan x="22.25" y="8" dx="0">e</tspan><tspan x="26" y="8" dx="0">r</tspan><tspan x="28.75" y="8" dx="0">o</tspan><tspan x="32.75" y="8" dx="0">l</tspan><tspan x="34.75" y="8" dx="0">»</tspan></text><g transform="matrix(1 0 0 -1 767 419)"><rect x="0" y="-10" width="13" height="10" stroke="none" fill="#FFFFFF"/></g><text stroke="none" fill="#000000" font-size="8" transform="translate(767 419)"><tspan x="0" y="8" dx="0">1..*</tspan></text><g transform="matrix(1 0 0 -1 94 530)"><rect x="0" y="-10" width="4" height="10" stroke="none" fill="#FFFFFF"/></g><text stroke="none" fill="#000000" font-size="8" transform="translate(94 530)"><tspan x="0" y="8" dx="0">1</tspan></text><g transform="matrix(1 0 0 -1 95 578)"><rect x="0" y="-10" width="76" height="10" stroke="none" fill="#FFFFFF"/></g><text stroke="none" fill="#000000" font-size="8" transform="translate(95 578)"><tspan x="0" y="8" dx="0">+</tspan><tspan x="4.25" y="8" dx="0">g</tspan><tspan x="8.25" y="8" dx="0">e</tspan><tspan x="12.25" y="8" dx="0">r</tspan><tspan x="15" y="8" dx="0">e</tspan><tspan x="19" y="8" dx="0">l</tspan><tspan x="21" y="8" dx="0">a</tspan><tspan x="24.75" y="8" dx="0">t</tspan><tspan x="27.5" y="8" dx="0">e</tspan><tspan x="31.5" y="8" dx="0">e</tspan><tspan x="35.5" y="8" dx="0">r</tspan><tspan x="38.25" y="8" dx="0">d</tspan><tspan x="42.5" y="8" dx="0">e</tspan><tspan x="46.5" y="8" dx="0">A</tspan><tspan x="51" y="8" dx="0">c</tspan><tspan x="54.25" y="8" dx="0 0">ti</tspan><tspan x="59" y="8" dx="0">v</tspan><tspan x="62.5" y="8" dx="0">i</tspan><tspan x="64.5" y="8" dx="0">t</tspan><tspan x="67.25" y="8" dx="0">e</tspan><tspan x="71.25" y="8" dx="0">i</tspan><tspan x="73.25" y="8" dx="0">t</tspan></text><g transform="matrix(1 0 0 -1 95 588)"><rect x="0" y="-10" width="54" height="10" stroke="none" fill="#FFFFFF"/></g><text stroke="none" fill="#000000" font-size="8" transform="translate(95 588)"><tspan x="0" y="8" dx="0">«</tspan><tspan x="4" y="8" dx="0">R</tspan><tspan x="8.25" y="8" dx="0">e</tspan><tspan x="12.25" y="8" dx="0">l</tspan><tspan x="14.25" y="8" dx="0">a</tspan><tspan x="18" y="8" dx="0 0">ti</tspan><tspan x="22.75" y="8" dx="0">e</tspan><tspan x="26.75" y="8" dx="0">r</tspan><tspan x="29.5" y="8" dx="0">o</tspan><tspan x="33.75" y="8" dx="0">l</tspan><tspan x="35.75" y="8" dx="0">»</tspan><tspan x="40" y="8" dx="0"> </tspan><tspan x="42" y="8" dx="0">0</tspan><tspan x="46" y="8" dx="0">.</tspan><tspan x="48" y="8" dx="0">.</tspan><tspan x="50" y="8" dx="0">*</tspan></text><g transform="matrix(1 0 0 -1 201 315)"><rect x="0" y="-10" width="13" height="10" stroke="none" fill="#FFFFFF"/></g><text stroke="none" fill="#000000" font-size="8" transform="translate(201 315)"><tspan x="0" y="8" dx="0">1..*</tspan></text><g transform="matrix(1 0 0 -1 250 362)"><rect x="0" y="-10" width="69" height="10" stroke="none" fill="#FFFFFF"/></g><text stroke="none" fill="#000000" font-size="8" transform="translate(250 362)"><tspan x="0" y="8" dx="0">+</tspan><tspan x="3.75" y="8" dx="0">a</tspan><tspan x="7.5" y="8" dx="0">c</tspan><tspan x="10.75" y="8" dx="0 0">ti</tspan><tspan x="15.5" y="8" dx="0">v</tspan><tspan x="19" y="8" dx="0">i</tspan><tspan x="21" y="8" dx="0">t</tspan><tspan x="23.75" y="8" dx="0">e</tspan><tspan x="27.75" y="8" dx="0">i</tspan><tspan x="29.75" y="8" dx="0">t</tspan><tspan x="32.5" y="8" dx="0">a</tspan><tspan x="36.25" y="8" dx="0">a</tspan><tspan x="40" y="8" dx="0">n</tspan><tspan x="44.25" y="8" dx="0">d</tspan><tspan x="48.5" y="8" dx="0">u</tspan><tspan x="52.75" y="8" dx="0">i</tspan><tspan x="54.75" y="8" dx="0">d</tspan><tspan x="59" y="8" dx="0">i</tspan><tspan x="61" y="8" dx="0">n</tspan><tspan x="65.25" y="8" dx="0">g</tspan></text><g transform="matrix(1 0 0 -1 250 372)"><rect x="0" y="-10" width="39" height="10" stroke="none" fill="#FFFFFF"/></g><text stroke="none" fill="#000000" font-size="8" transform="translate(250 372)"><tspan x="0" y="8" dx="0">«</tspan><tspan x="4" y="8" dx="0">R</tspan><tspan x="8.25" y="8" dx="0">e</tspan><tspan x="12" y="8" dx="0">l</tspan><tspan x="14" y="8" dx="0">a</tspan><tspan x="17.5" y="8" dx="0 0">ti</tspan><tspan x="22.25" y="8" dx="0">e</tspan><tspan x="26" y="8" dx="0">r</tspan><tspan x="28.75" y="8" dx="0">o</tspan><tspan x="32.75" y="8" dx="0">l</tspan><tspan x="34.75" y="8" dx="0">»</tspan></text><g transform="matrix(1 0 0 -1 201 372)"><rect x="0" y="-10" width="13" height="10" stroke="none" fill="#FFFFFF"/></g><text stroke="none" fill="#000000" font-size="8" transform="translate(201 372)"><tspan x="0" y="8" dx="0">0..*</tspan></text><g transform="matrix(1 0 0 -1 510 416)"><rect x="0" y="-10" width="13" height="10" stroke="none" fill="#FFFFFF"/></g><text stroke="none" fill="#000000" font-size="8" transform="translate(510 416)"><tspan x="0" y="8" dx="0">0..*</tspan></text><g transform="matrix(1 0 0 -1 602 454)"><rect x="0" y="-10" width="63" height="10" stroke="none" fill="#FFFFFF"/></g><text stroke="none" fill="#000000" font-size="8" transform="translate(602 454)"><tspan x="0" y="8" dx="0">+</tspan><tspan x="4.25" y="8" dx="0">l</tspan><tspan x="6.25" y="8" dx="0">o</tspan><tspan x="10.75" y="8" dx="0">c</tspan><tspan x="14" y="8" dx="0">a</tspan><tspan x="17.75" y="8" dx="0 0">ti</tspan><tspan x="22.5" y="8" dx="0">e</tspan><tspan x="26.5" y="8" dx="0">a</tspan><tspan x="30.25" y="8" dx="0">a</tspan><tspan x="34" y="8" dx="0">n</tspan><tspan x="38.25" y="8" dx="0">d</tspan><tspan x="42.5" y="8" dx="0">u</tspan><tspan x="46.75" y="8" dx="0">i</tspan><tspan x="48.75" y="8" dx="0">d</tspan><tspan x="53" y="8" dx="0">i</tspan><tspan x="55" y="8" dx="0">n</tspan><tspan x="59.25" y="8" dx="0">g</tspan></text><g transform="matrix(1 0 0 -1 626 464)"><rect x="0" y="-10" width="39" height="10" stroke="none" fill="#FFFFFF"/></g><text stroke="none" fill="#000000" font-size="8" transform="translate(626 464)"><tspan x="0" y="8" dx="0">«</tspan><tspan x="4" y="8" dx="0">R</tspan><tspan x="8.25" y="8" dx="0">e</tspan><tspan x="12" y="8" dx="0">l</tspan><tspan x="14" y="8" dx="0">a</tspan><tspan x="17.5" y="8" dx="0 0">ti</tspan><tspan x="22.25" y="8" dx="0">e</tspan><tspan x="26" y="8" dx="0">r</tspan><tspan x="28.75" y="8" dx="0">o</tspan><tspan x="32.75" y="8" dx="0">l</tspan><tspan x="34.75" y="8" dx="0">»</tspan></text><g transform="matrix(1 0 0 -1 620 476)"><rect x="0" y="-10" width="13" height="10" stroke="none" fill="#FFFFFF"/></g><text stroke="none" fill="#000000" font-size="8" transform="translate(620 476)"><tspan x="0" y="8" dx="0">1..*</tspan></text><g transform="matrix(1 0 0 -1 185 531)"><rect x="0" y="-10" width="4" height="10" stroke="none" fill="#FFFFFF"/></g><text stroke="none" fill="#000000" font-size="8" transform="translate(185 531)"><tspan x="0" y="8" dx="0">1</tspan></text><g transform="matrix(1 0 0 -1 226 577)"><rect x="0" y="-10" width="83" height="10" stroke="none" fill="#FFFFFF"/></g><text stroke="none" fill="#000000" font-size="8" transform="translate(226 577)"><tspan x="0" y="8" dx="0">+</tspan><tspan x="4.25" y="8" dx="0">b</tspan><tspan x="8.75" y="8" dx="0">o</tspan><tspan x="13.25" y="8" dx="0">v</tspan><tspan x="17" y="8" dx="0">e</tspan><tspan x="21.25" y="8" dx="0">n</tspan><tspan x="25.5" y="8" dx="0">l</tspan><tspan x="27.5" y="8" dx="0">i</tspan><tspan x="29.5" y="8" dx="0">g</tspan><tspan x="33.25" y="8" dx="0">g</tspan><tspan x="37" y="8" dx="0">e</tspan><tspan x="41" y="8" dx="0">n</tspan><tspan x="45.25" y="8" dx="0">d</tspan><tspan x="49.5" y="8" dx="0">e</tspan><tspan x="53.5" y="8" dx="0">A</tspan><tspan x="58" y="8" dx="0">c</tspan><tspan x="61.25" y="8" dx="0 0">ti</tspan><tspan x="66" y="8" dx="0">v</tspan><tspan x="69.5" y="8" dx="0">i</tspan><tspan x="71.5" y="8" dx="0">t</tspan><tspan x="74.25" y="8" dx="0">e</tspan><tspan x="78.25" y="8" dx="0">i</tspan><tspan x="80.25" y="8" dx="0">t</tspan></text><g transform="matrix(1 0 0 -1 226 587)"><rect x="0" y="-10" width="45" height="10" stroke="none" fill="#FFFFFF"/></g><text stroke="none" fill="#000000" font-size="8" transform="translate(226 587)"><tspan x="0" y="8" dx="0">«</tspan><tspan x="4" y="8" dx="0">R</tspan><tspan x="8.25" y="8" dx="0">e</tspan><tspan x="12" y="8" dx="0">l</tspan><tspan x="14" y="8" dx="0">a</tspan><tspan x="17.5" y="8" dx="0 0">ti</tspan><tspan x="22.25" y="8" dx="0">e</tspan><tspan x="26" y="8" dx="0">r</tspan><tspan x="28.75" y="8" dx="0">o</tspan><tspan x="32.75" y="8" dx="0">l</tspan><tspan x="34.75" y="8" dx="0">»</tspan><tspan x="39" y="8" dx="0"> </tspan><tspan x="41" y="8" dx="0">1</tspan></text></g></g></g></g></svg>