<svg width="630.927" height="507.776" viewBox="236.701 121.596 473.195 380.832" xmlns="http://www.w3.org/2000/svg" xmlns:xlink="http://www.w3.org/1999/xlink" overflow="hidden"><g transform="matrix(1 0 0 -1 0 841)"><g stroke="#000000" stroke-linecap="round" stroke-linejoin="round" stroke-miterlimit="3" fill="none" fill-rule="evenodd" font-weight="400" baseline-shift="0"><g transform="matrix(0.6 0 0 0.6 0 841.65)"><g font-family="CalibriUnicode" font-size="8" transform="scale(1.19952 -1.19932)"><path d="M740 451C740 446 740 446 745 446L942 446C947 446 947 446 947 451L947 587C947 592 947 592 942 592L745 592C740 592 740 592 740 587L740 451" stroke="none" fill="#DFDFDF"/><path d="M737 448C737 443 737 443 742 443L939 443C944 443 944 443 944 448L944 584C944 589 944 589 939 589L742 589C737 589 737 589 737 584L737 448" stroke="none" stroke-width="2" fill="#FFE4E1"/><path d="M737 448C737 443 737 443 742 443L939 443C944 443 944 443 944 448L944 584C944 589 944 589 939 589L742 589C737 589 737 589 737 584L737 448M737 448C737 443 737 443 742 443L939 443C944 443 944 443 944 448L944 584C944 589 944 589 939 589L742 589C737 589 737 589 737 584L737 448" stroke-width="2"/><text stroke="none" fill="#000000" font-size="14" transform="translate(803 449)"><tspan x="0" y="13" dx="0">«</tspan><tspan x="8" y="13" dx="0">O</tspan><tspan x="17" y="13" dx="0">b</tspan><tspan x="24" y="13" dx="0">j</tspan><tspan x="28" y="13" dx="0">e</tspan><tspan x="34" y="13" dx="0">c</tspan><tspan x="40" y="13" dx="0 0">tt</tspan><tspan x="50" y="13" dx="0">y</tspan><tspan x="57" y="13" dx="0">p</tspan><tspan x="64" y="13" dx="0">e</tspan><tspan x="71" y="13" dx="0">»</tspan></text><text stroke="none" fill="#000000" font-style="italic" font-weight="700" font-size="14" transform="translate(820 466)"><tspan x="0" y="13" dx="0">L</tspan><tspan x="6" y="13" dx="0">o</tspan><tspan x="13" y="13" dx="0">c</tspan><tspan x="19" y="13" dx="0">a</tspan><tspan x="27" y="13" dx="0 0">ti</tspan><tspan x="35" y="13" dx="0">e</tspan></text><path d="M737 488 944 488" stroke-width="2"/><text stroke="none" fill="#000000" font-size="14" transform="translate(751 496)"><tspan x="0" y="13" dx="0">«</tspan><tspan x="8" y="13" dx="0">A</tspan><tspan x="16" y="13" dx="0 0">tt</tspan><tspan x="26" y="13" dx="0">r</tspan><tspan x="31" y="13" dx="0">i</tspan><tspan x="34" y="13" dx="0">b</tspan><tspan x="42" y="13" dx="0">u</tspan><tspan x="49" y="13" dx="0">u</tspan><tspan x="57" y="13" dx="0">t</tspan><tspan x="62" y="13" dx="0">s</tspan><tspan x="68" y="13" dx="0">o</tspan><tspan x="75" y="13" dx="0">o</tspan><tspan x="83" y="13" dx="0">r</tspan><tspan x="88" y="13" dx="0">t</tspan><tspan x="93" y="13" dx="0">»</tspan></text><text stroke="none" fill="#2F4F4F" font-size="14" transform="translate(742 513)"><tspan x="0" y="13" dx="0">+</tspan></text><text stroke="none" fill="#2F4F4F" font-size="14" transform="translate(766 513)"><tspan x="0" y="13" dx="0">i</tspan><tspan x="3" y="13" dx="0">d</tspan><tspan x="11" y="13" dx="0">e</tspan><tspan x="18" y="13" dx="0">n</tspan><tspan x="25" y="13" dx="0 0">ti</tspan><tspan x="33" y="13" dx="0 0">fi</tspan><tspan x="41" y="13" dx="0">c</tspan><tspan x="47" y="13" dx="0">a</tspan><tspan x="53" y="13" dx="0 0">ti</tspan><tspan x="62" y="13" dx="0">e</tspan><tspan x="68" y="13" dx="0">:</tspan><tspan x="73" y="13" dx="0"> </tspan><tspan x="76" y="13" dx="0">N</tspan><tspan x="85" y="13" dx="0">E</tspan><tspan x="92" y="13" dx="0">N</tspan><tspan x="101" y="13" dx="0">3</tspan><tspan x="108" y="13" dx="0">6</tspan><tspan x="116" y="13" dx="0">1</tspan><tspan x="123" y="13" dx="0">0</tspan><tspan x="131" y="13" dx="0">I</tspan><tspan x="134" y="13" dx="0">D</tspan><tspan x="143" y="13" dx="0"> </tspan><tspan x="146" y="13" dx="0">{</tspan><tspan x="150" y="13" dx="0">i</tspan><tspan x="153" y="13" dx="0">d</tspan><tspan x="161" y="13" dx="0">}</tspan></text><text stroke="none" fill="#2F4F4F" font-size="14" transform="translate(742 530)"><tspan x="0" y="13" dx="0">+</tspan></text><text stroke="none" fill="#2F4F4F" font-size="14" transform="translate(765 530)"><tspan x="0" y="13" dx="0">noemer: CharacterString [0..1]</tspan></text><path d="M343 451C343 446 343 446 348 446L617 446C622 446 622 446 622 451L622 587C622 592 622 592 617 592L348 592C343 592 343 592 343 587L343 451" stroke="none" fill="#DFDFDF"/><path d="M340 448C340 443 340 443 345 443L614 443C619 443 619 443 619 448L619 584C619 589 619 589 614 589L345 589C340 589 340 589 340 584L340 448" stroke="none" stroke-width="2" fill="#CCFFCC"/><path d="M340 448C340 443 340 443 345 443L614 443C619 443 619 443 619 448L619 584C619 589 619 589 614 589L345 589C340 589 340 589 340 584L340 448M340 448C340 443 340 443 345 443L614 443C619 443 619 443 619 448L619 584C619 589 619 589 614 589L345 589C340 589 340 589 340 584L340 448" stroke-width="2"/><text stroke="none" fill="#000000" font-size="13" transform="translate(443 449)"><tspan x="0" y="13" dx="0">«</tspan><tspan x="7" y="13" dx="0">O</tspan><tspan x="16" y="13" dx="0">b</tspan><tspan x="23" y="13" dx="0">j</tspan><tspan x="26" y="13" dx="0">e</tspan><tspan x="33" y="13" dx="0">c</tspan><tspan x="38" y="13" dx="0 0">tt</tspan><tspan x="47" y="13" dx="0">y</tspan><tspan x="53" y="13" dx="0">p</tspan><tspan x="59" y="13" dx="0">e</tspan><tspan x="66" y="13" dx="0">»</tspan></text><text stroke="none" fill="#000000" font-weight="700" font-size="13" transform="translate(427 464)"><tspan x="0" y="13" dx="0">Gebiedsaanwijzing</tspan></text><path d="M340 484 619 484" stroke-width="2"/><text stroke="none" fill="#000000" font-size="13" transform="translate(353 492)"><tspan x="0" y="13" dx="0">«</tspan><tspan x="7" y="13" dx="0">A</tspan><tspan x="14" y="13" dx="0 0">tt</tspan><tspan x="23" y="13" dx="0">r</tspan><tspan x="27" y="13" dx="0">i</tspan><tspan x="30" y="13" dx="0">b</tspan><tspan x="37" y="13" dx="0">u</tspan><tspan x="43" y="13" dx="0">u</tspan><tspan x="50" y="13" dx="0">t</tspan><tspan x="54" y="13" dx="0">s</tspan><tspan x="60" y="13" dx="0">o</tspan><tspan x="67" y="13" dx="0">o</tspan><tspan x="73" y="13" dx="0">r</tspan><tspan x="78" y="13" dx="0">t</tspan><tspan x="82" y="13" dx="0">»</tspan></text><text stroke="none" fill="#2F4F4F" font-size="13" transform="translate(345 507)"><tspan x="0" y="13" dx="0">+</tspan></text><text stroke="none" fill="#2F4F4F" font-size="13" transform="translate(366 507)"><tspan x="0" y="13" dx="0">i</tspan><tspan x="3" y="13" dx="0">d</tspan><tspan x="10" y="13" dx="0">e</tspan><tspan x="17" y="13" dx="0">n</tspan><tspan x="23" y="13" dx="0 0">ti</tspan><tspan x="31" y="13" dx="0 0">fi</tspan><tspan x="38" y="13" dx="0">c</tspan><tspan x="44" y="13" dx="0">a</tspan><tspan x="51" y="13" dx="0 0">ti</tspan><tspan x="58" y="13" dx="0">e</tspan><tspan x="65" y="13" dx="0">:</tspan><tspan x="68" y="13" dx="0"> </tspan><tspan x="72" y="13" dx="0">N</tspan><tspan x="80" y="13" dx="0">E</tspan><tspan x="87" y="13" dx="0">N</tspan><tspan x="95" y="13" dx="0">3</tspan><tspan x="102" y="13" dx="0">6</tspan><tspan x="108" y="13" dx="0">1</tspan><tspan x="115" y="13" dx="0">0</tspan><tspan x="122" y="13" dx="0">I</tspan><tspan x="125" y="13" dx="0">D</tspan><tspan x="133" y="13" dx="0"> </tspan><tspan x="137" y="13" dx="0">{</tspan><tspan x="141" y="13" dx="0">i</tspan><tspan x="144" y="13" dx="0">d</tspan><tspan x="151" y="13" dx="0">}</tspan></text><text stroke="none" fill="#2F4F4F" font-size="13" transform="translate(345 522)"><tspan x="0" y="13" dx="0">+</tspan></text><text stroke="none" fill="#2F4F4F" font-size="13" transform="translate(366 522)"><tspan x="0" y="13" dx="0">naam: CharacterString</tspan></text><text stroke="none" fill="#2F4F4F" font-size="13" transform="translate(345 537)"><tspan x="0" y="13" dx="0">+</tspan></text><text stroke="none" fill="#2F4F4F" font-size="13" transform="translate(366 537)"><tspan x="0" y="13" dx="0">type: TypeGebiedsaanwijzing</tspan></text><text stroke="none" fill="#2F4F4F" font-size="13" transform="translate(345 552)"><tspan x="0" y="13" dx="0">+</tspan></text><text stroke="none" fill="#2F4F4F" font-size="13" transform="translate(366 552)"><tspan x="0" y="13" dx="0">groep: Gebiedsaanwijzinggroep</tspan></text><text stroke="none" fill="#2F4F4F" font-size="13" transform="translate(345 567)"><tspan x="0" y="13" dx="0">+</tspan></text><text stroke="none" fill="#2F4F4F" font-size="13" transform="translate(366 567)"><tspan x="0" y="13" dx="0">s</tspan><tspan x="6" y="13" dx="0">p</tspan><tspan x="13" y="13" dx="0">e</tspan><tspan x="19" y="13" dx="0">c</tspan><tspan x="25" y="13" dx="0">i</tspan><tspan x="28" y="13" dx="0 0">fi</tspan><tspan x="36" y="13" dx="0">e</tspan><tspan x="43" y="13" dx="0">k</tspan><tspan x="48" y="13" dx="0">e</tspan><tspan x="55" y="13" dx="0">S</tspan><tspan x="61" y="13" dx="0">y</tspan><tspan x="67" y="13" dx="0">m</tspan><tspan x="77" y="13" dx="0">b</tspan><tspan x="83" y="13" dx="0">o</tspan><tspan x="90" y="13" dx="0">l</tspan><tspan x="93" y="13" dx="0">i</tspan><tspan x="97" y="13" dx="0">s</tspan><tspan x="103" y="13" dx="0">a</tspan><tspan x="109" y="13" dx="0 0">ti</tspan><tspan x="117" y="13" dx="0">e</tspan><tspan x="123" y="13" dx="0">:</tspan><tspan x="127" y="13" dx="0"> </tspan><tspan x="130" y="13" dx="0">C</tspan><tspan x="138" y="13" dx="0">h</tspan><tspan x="144" y="13" dx="0">a</tspan><tspan x="151" y="13" dx="0">r</tspan><tspan x="155" y="13" dx="0">a</tspan><tspan x="162" y="13" dx="0">c</tspan><tspan x="168" y="13" dx="0">t</tspan><tspan x="172" y="13" dx="0">e</tspan><tspan x="178" y="13" dx="0">r</tspan><tspan x="183" y="13" dx="0">S</tspan><tspan x="188" y="13" dx="0">t</tspan><tspan x="193" y="13" dx="0">r</tspan><tspan x="197" y="13" dx="0">i</tspan><tspan x="200" y="13" dx="0">n</tspan><tspan x="207" y="13" dx="0">g</tspan><tspan x="213" y="13" dx="0"> </tspan><tspan x="217" y="13" dx="0">[</tspan><tspan x="221" y="13" dx="0">0</tspan><tspan x="228" y="13" dx="0">.</tspan><tspan x="231" y="13" dx="0">.</tspan><tspan x="234" y="13" dx="0">1</tspan><tspan x="241" y="13" dx="0">]</tspan></text><path d="M559 302C559 297 559 297 564 297L748 297C753 297 753 297 753 302L753 366C753 371 753 371 748 371L564 371C559 371 559 371 559 366L559 302" stroke="none" fill="#DFDFDF"/><path d="M556 299C556 294 556 294 561 294L745 294C750 294 750 294 750 299L750 363C750 368 750 368 745 368L561 368C556 368 556 368 556 363L556 299" stroke="none" stroke-width="2" fill="#CCFFFF"/><path d="M556 299C556 294 556 294 561 294L745 294C750 294 750 294 750 299L750 363C750 368 750 368 745 368L561 368C556 368 556 368 556 363L556 299M556 299C556 294 556 294 561 294L745 294C750 294 750 294 750 299L750 363C750 368 750 368 745 368L561 368C556 368 556 368 556 363L556 299" stroke-width="2"/><text stroke="none" fill="#000000" font-size="14" transform="translate(615 300)"><tspan x="0" y="13" dx="0">«</tspan><tspan x="8" y="13" dx="0">O</tspan><tspan x="17" y="13" dx="0">b</tspan><tspan x="24" y="13" dx="0">j</tspan><tspan x="28" y="13" dx="0">e</tspan><tspan x="34" y="13" dx="0">c</tspan><tspan x="40" y="13" dx="0 0">tt</tspan><tspan x="50" y="13" dx="0">y</tspan><tspan x="57" y="13" dx="0">p</tspan><tspan x="64" y="13" dx="0">e</tspan><tspan x="71" y="13" dx="0">»</tspan></text><text stroke="none" fill="#000000" font-weight="700" font-size="14" transform="translate(624 317)"><tspan x="0" y="13" dx="0">Tekstdeel</tspan></text><text stroke="none" fill="#FF0000" font-family="ArialUnicode" font-style="italic" font-size="10" transform="translate(742 349)"><tspan x="0" y="8" dx="0">A</tspan></text><path d="M397 630C397 625 397 625 402 625L559 625C564 625 564 625 564 630L564 683C564 688 564 688 559 688L402 688C397 688 397 688 397 683L397 630" stroke="none" fill="#DFDFDF"/><path d="M394 627C394 622 394 622 399 622L556 622C561 622 561 622 561 627L561 680C561 685 561 685 556 685L399 685C394 685 394 685 394 680L394 627" stroke="none" fill="#F7DDB4"/><path d="M394 627C394 622 394 622 399 622L556 622C561 622 561 622 561 627L561 680C561 685 561 685 556 685L399 685C394 685 394 685 394 680L394 627M394 627C394 622 394 622 399 622L556 622C561 622 561 622 561 627L561 680C561 685 561 685 556 685L399 685C394 685 394 685 394 680L394 627"/><text stroke="none" fill="#000000" font-size="12" transform="translate(452 628)"><tspan x="0" y="12" dx="0">«CodeList»</tspan></text><text stroke="none" fill="#000000" font-weight="700" font-size="12" transform="translate(419 642)"><tspan x="0" y="12" dx="0">TypeGebiedsaanwijzing</tspan></text><path d="M740 630C740 625 740 625 745 625L880 625C885 625 885 625 885 630L885 683C885 688 885 688 880 688L745 688C740 688 740 688 740 683L740 630" stroke="none" fill="#DFDFDF"/><path d="M737 627C737 622 737 622 742 622L877 622C882 622 882 622 882 627L882 680C882 685 882 685 877 685L742 685C737 685 737 685 737 680L737 627" stroke="none" fill="#F7DDB4"/><path d="M737 627C737 622 737 622 742 622L877 622C882 622 882 622 882 627L882 680C882 685 882 685 877 685L742 685C737 685 737 685 737 680L737 627M737 627C737 622 737 622 742 622L877 622C882 622 882 622 882 627L882 680C882 685 882 685 877 685L742 685C737 685 737 685 737 680L737 627"/><text stroke="none" fill="#000000" font-size="12" transform="translate(784 628)"><tspan x="0" y="12" dx="0">«CodeList»</tspan></text><text stroke="none" fill="#000000" font-weight="700" font-size="12" transform="translate(749 642)"><tspan x="0" y="12" dx="0">Gebiedsaanwijzinggroep</tspan></text><path d="M559 189C559 184 559 184 564 184L748 184C753 184 753 184 753 189L753 251C753 256 753 256 748 256L564 256C559 256 559 256 559 251L559 189" stroke="none" fill="#DFDFDF"/><path d="M556 186C556 181 556 181 561 181L745 181C750 181 750 181 750 186L750 248C750 253 750 253 745 253L561 253C556 253 556 253 556 248L556 186" stroke="none" stroke-width="2" fill="#CCFFFF"/><path d="M556 186C556 181 556 181 561 181L745 181C750 181 750 181 750 186L750 248C750 253 750 253 745 253L561 253C556 253 556 253 556 248L556 186M556 186C556 181 556 181 561 181L745 181C750 181 750 181 750 186L750 248C750 253 750 253 745 253L561 253C556 253 556 253 556 248L556 186" stroke-width="2"/><text stroke="none" fill="#000000" font-size="14" transform="translate(615 187)"><tspan x="0" y="13" dx="0">«</tspan><tspan x="8" y="13" dx="0">O</tspan><tspan x="17" y="13" dx="0">b</tspan><tspan x="24" y="13" dx="0">j</tspan><tspan x="28" y="13" dx="0">e</tspan><tspan x="34" y="13" dx="0">c</tspan><tspan x="40" y="13" dx="0 0">tt</tspan><tspan x="50" y="13" dx="0">y</tspan><tspan x="57" y="13" dx="0">p</tspan><tspan x="64" y="13" dx="0">e</tspan><tspan x="71" y="13" dx="0">»</tspan></text><text stroke="none" fill="#000000" font-style="italic" font-weight="700" font-size="14" transform="translate(608 204)"><tspan x="0" y="13" dx="0">Juridische regel</tspan></text><path d="M751 217 874 217M874 217 874 443M874 443 868 428M874 443 880 428" stroke-width="2"/><path d="M621 506 736 507M736 507 721 513M736 507 721 501" stroke-width="2"/><path d="M556 217 430 217M430 217 430 443M430 443 424 428M430 443 436 428" stroke-width="2"/><path d="M556 343 486 343M486 343 486 443M486 443 480 428M486 443 492 428" stroke-width="2"/><path d="M751 333 823 333M823 333 823 443M823 443 817 428M823 443 829 428" stroke-width="2"/><g transform="matrix(1 0 0 -1 762 226)"><rect x="0" y="-10" width="13" height="10" stroke="none" fill="#FFFFFF"/></g><text stroke="none" fill="#000000" transform="translate(762 226)"><tspan x="0" y="8" dx="0">0..*</tspan></text><g transform="matrix(1 0 0 -1 912 384)"><rect x="0" y="-10" width="63" height="10" stroke="none" fill="#FFFFFF"/></g><text stroke="none" fill="#000000" transform="translate(912 384)"><tspan x="0" y="8" dx="0">+</tspan><tspan x="4.25" y="8" dx="0">l</tspan><tspan x="6.25" y="8" dx="0">o</tspan><tspan x="10.75" y="8" dx="0">c</tspan><tspan x="14" y="8" dx="0">a</tspan><tspan x="17.75" y="8" dx="0 0">ti</tspan><tspan x="22.5" y="8" dx="0">e</tspan><tspan x="26.5" y="8" dx="0">a</tspan><tspan x="30.25" y="8" dx="0">a</tspan><tspan x="34" y="8" dx="0">n</tspan><tspan x="38.25" y="8" dx="0">d</tspan><tspan x="42.5" y="8" dx="0">u</tspan><tspan x="46.75" y="8" dx="0">i</tspan><tspan x="48.75" y="8" dx="0">d</tspan><tspan x="53" y="8" dx="0">i</tspan><tspan x="55" y="8" dx="0">n</tspan><tspan x="59.25" y="8" dx="0">g</tspan></text><g transform="matrix(1 0 0 -1 912 394)"><rect x="0" y="-10" width="39" height="10" stroke="none" fill="#FFFFFF"/></g><text stroke="none" fill="#000000" transform="translate(912 394)"><tspan x="0" y="8" dx="0">«</tspan><tspan x="4" y="8" dx="0">R</tspan><tspan x="8.25" y="8" dx="0">e</tspan><tspan x="12" y="8" dx="0">l</tspan><tspan x="14" y="8" dx="0">a</tspan><tspan x="17.5" y="8" dx="0 0">ti</tspan><tspan x="22.25" y="8" dx="0">e</tspan><tspan x="26" y="8" dx="0">r</tspan><tspan x="28.75" y="8" dx="0">o</tspan><tspan x="32.75" y="8" dx="0">l</tspan><tspan x="34.75" y="8" dx="0">»</tspan></text><g transform="matrix(1 0 0 -1 889 415)"><rect x="0" y="-10" width="13" height="10" stroke="none" fill="#FFFFFF"/></g><text stroke="none" fill="#000000" transform="translate(889 415)"><tspan x="0" y="8" dx="0">1..*</tspan></text><g transform="matrix(1 0 0 -1 541 348)"><rect x="0" y="-10" width="13" height="10" stroke="none" fill="#FFFFFF"/></g><text stroke="none" fill="#000000" transform="translate(541 348)"><tspan x="0" y="8" dx="0">0..*</tspan></text><g transform="matrix(1 0 0 -1 518 397)"><rect x="0" y="-10" width="65" height="10" stroke="none" fill="#FFFFFF"/></g><text stroke="none" fill="#000000" transform="translate(518 397)"><tspan x="0" y="8" dx="0">+gebiedsaanwijzing</tspan></text><g transform="matrix(1 0 0 -1 518 407)"><rect x="0" y="-10" width="39" height="10" stroke="none" fill="#FFFFFF"/></g><text stroke="none" fill="#000000" transform="translate(518 407)"><tspan x="0" y="8" dx="0">«</tspan><tspan x="4" y="8" dx="0">R</tspan><tspan x="8.25" y="8" dx="0">e</tspan><tspan x="12" y="8" dx="0">l</tspan><tspan x="14" y="8" dx="0">a</tspan><tspan x="17.5" y="8" dx="0 0">ti</tspan><tspan x="22.25" y="8" dx="0">e</tspan><tspan x="26" y="8" dx="0">r</tspan><tspan x="28.75" y="8" dx="0">o</tspan><tspan x="32.75" y="8" dx="0">l</tspan><tspan x="34.75" y="8" dx="0">»</tspan></text><g transform="matrix(1 0 0 -1 494 429)"><rect x="0" y="-10" width="13" height="10" stroke="none" fill="#FFFFFF"/></g><text stroke="none" fill="#000000" transform="translate(494 429)"><tspan x="0" y="8" dx="0">0..*</tspan></text><g transform="matrix(1 0 0 -1 754 338)"><rect x="0" y="-10" width="13" height="10" stroke="none" fill="#FFFFFF"/></g><text stroke="none" fill="#000000" transform="translate(754 338)"><tspan x="0" y="8" dx="0">0..*</tspan></text><g transform="matrix(1 0 0 -1 751 403)"><rect x="0" y="-10" width="63" height="10" stroke="none" fill="#FFFFFF"/></g><text stroke="none" fill="#000000" transform="translate(751 403)"><tspan x="0" y="8" dx="0">+</tspan><tspan x="4.25" y="8" dx="0">l</tspan><tspan x="6.25" y="8" dx="0">o</tspan><tspan x="10.75" y="8" dx="0">c</tspan><tspan x="14" y="8" dx="0">a</tspan><tspan x="17.75" y="8" dx="0 0">ti</tspan><tspan x="22.5" y="8" dx="0">e</tspan><tspan x="26.5" y="8" dx="0">a</tspan><tspan x="30.25" y="8" dx="0">a</tspan><tspan x="34" y="8" dx="0">n</tspan><tspan x="38.25" y="8" dx="0">d</tspan><tspan x="42.5" y="8" dx="0">u</tspan><tspan x="46.75" y="8" dx="0">i</tspan><tspan x="48.75" y="8" dx="0">d</tspan><tspan x="53" y="8" dx="0">i</tspan><tspan x="55" y="8" dx="0">n</tspan><tspan x="59.25" y="8" dx="0">g</tspan></text><g transform="matrix(1 0 0 -1 775 413)"><rect x="0" y="-10" width="39" height="10" stroke="none" fill="#FFFFFF"/></g><text stroke="none" fill="#000000" transform="translate(775 413)"><tspan x="0" y="8" dx="0">«</tspan><tspan x="4" y="8" dx="0">R</tspan><tspan x="8.25" y="8" dx="0">e</tspan><tspan x="12" y="8" dx="0">l</tspan><tspan x="14" y="8" dx="0">a</tspan><tspan x="17.5" y="8" dx="0 0">ti</tspan><tspan x="22.25" y="8" dx="0">e</tspan><tspan x="26" y="8" dx="0">r</tspan><tspan x="28.75" y="8" dx="0">o</tspan><tspan x="32.75" y="8" dx="0">l</tspan><tspan x="34.75" y="8" dx="0">»</tspan></text><g transform="matrix(1 0 0 -1 831 428)"><rect x="0" y="-10" width="13" height="10" stroke="none" fill="#FFFFFF"/></g><text stroke="none" fill="#000000" transform="translate(831 428)"><tspan x="0" y="8" dx="0">0..*</tspan></text><g transform="matrix(1 0 0 -1 541 222)"><rect x="0" y="-10" width="13" height="10" stroke="none" fill="#FFFFFF"/></g><text stroke="none" fill="#000000" transform="translate(541 222)"><tspan x="0" y="8" dx="0">0..*</tspan></text><g transform="matrix(1 0 0 -1 365 394)"><rect x="0" y="-10" width="65" height="10" stroke="none" fill="#FFFFFF"/></g><text stroke="none" fill="#000000" transform="translate(365 394)"><tspan x="0" y="8" dx="0">+gebiedsaanwijzing</tspan></text><g transform="matrix(1 0 0 -1 391 404)"><rect x="0" y="-10" width="39" height="10" stroke="none" fill="#FFFFFF"/></g><text stroke="none" fill="#000000" transform="translate(391 404)"><tspan x="0" y="8" dx="0">«</tspan><tspan x="4" y="8" dx="0">R</tspan><tspan x="8.25" y="8" dx="0">e</tspan><tspan x="12" y="8" dx="0">l</tspan><tspan x="14" y="8" dx="0">a</tspan><tspan x="17.5" y="8" dx="0 0">ti</tspan><tspan x="22.25" y="8" dx="0">e</tspan><tspan x="26" y="8" dx="0">r</tspan><tspan x="28.75" y="8" dx="0">o</tspan><tspan x="32.75" y="8" dx="0">l</tspan><tspan x="34.75" y="8" dx="0">»</tspan></text><g transform="matrix(1 0 0 -1 399 421)"><rect x="0" y="-10" width="13" height="10" stroke="none" fill="#FFFFFF"/></g><text stroke="none" fill="#000000" transform="translate(399 421)"><tspan x="0" y="8" dx="0">0..*</tspan></text><g transform="matrix(1 0 0 -1 627 510)"><rect x="0" y="-10" width="13" height="10" stroke="none" fill="#FFFFFF"/></g><text stroke="none" fill="#000000" transform="translate(627 510)"><tspan x="0" y="8" dx="0">0..*</tspan></text><g transform="matrix(1 0 0 -1 651 523)"><rect x="0" y="-10" width="63" height="10" stroke="none" fill="#FFFFFF"/></g><text stroke="none" fill="#000000" transform="translate(651 523)"><tspan x="0" y="8" dx="0">+</tspan><tspan x="4.25" y="8" dx="0">l</tspan><tspan x="6.25" y="8" dx="0">o</tspan><tspan x="10.75" y="8" dx="0">c</tspan><tspan x="14" y="8" dx="0">a</tspan><tspan x="17.75" y="8" dx="0 0">ti</tspan><tspan x="22.5" y="8" dx="0">e</tspan><tspan x="26.5" y="8" dx="0">a</tspan><tspan x="30.25" y="8" dx="0">a</tspan><tspan x="34" y="8" dx="0">n</tspan><tspan x="38.25" y="8" dx="0">d</tspan><tspan x="42.5" y="8" dx="0">u</tspan><tspan x="46.75" y="8" dx="0">i</tspan><tspan x="48.75" y="8" dx="0">d</tspan><tspan x="53" y="8" dx="0">i</tspan><tspan x="55" y="8" dx="0">n</tspan><tspan x="59.25" y="8" dx="0">g</tspan></text><g transform="matrix(1 0 0 -1 675 533)"><rect x="0" y="-10" width="39" height="10" stroke="none" fill="#FFFFFF"/></g><text stroke="none" fill="#000000" transform="translate(675 533)"><tspan x="0" y="8" dx="0">«</tspan><tspan x="4" y="8" dx="0">R</tspan><tspan x="8.25" y="8" dx="0">e</tspan><tspan x="12" y="8" dx="0">l</tspan><tspan x="14" y="8" dx="0">a</tspan><tspan x="17.5" y="8" dx="0 0">ti</tspan><tspan x="22.25" y="8" dx="0">e</tspan><tspan x="26" y="8" dx="0">r</tspan><tspan x="28.75" y="8" dx="0">o</tspan><tspan x="32.75" y="8" dx="0">l</tspan><tspan x="34.75" y="8" dx="0">»</tspan></text><g transform="matrix(1 0 0 -1 719 516)"><rect x="0" y="-10" width="13" height="10" stroke="none" fill="#FFFFFF"/></g><text stroke="none" fill="#000000" transform="translate(719 516)"><tspan x="0" y="8" dx="0">1..*</tspan></text></g></g></g></g></svg>