<svg width="1113.88" height="890.822" viewBox="198.472 14.113 835.412 668.116" xmlns="http://www.w3.org/2000/svg" xmlns:xlink="http://www.w3.org/1999/xlink" overflow="hidden"><g transform="matrix(1 0 0 -1 0 768)"><g stroke="#000000" stroke-linecap="round" stroke-linejoin="round" stroke-miterlimit="3" fill="none" fill-rule="evenodd" font-weight="400" baseline-shift="0"><g transform="matrix(0.6 0 0 0.6 0 768.2)"><g font-family="CalibriUnicode" font-size="8" transform="scale(1.19902 -1.19962)"><path d="M423 99C423 94 423 94 428 94L584 94C589 94 589 94 589 99L589 182C589 187 589 187 584 187L428 187C423 187 423 187 423 182L423 99" stroke="none" fill="#DFDFDF"/><path d="M420 96C420 91 420 91 425 91L581 91C586 91 586 91 586 96L586 179C586 184 586 184 581 184L425 184C420 184 420 184 420 179L420 96" stroke="none" stroke-width="2" fill="#00CCFF"/><path d="M420 96C420 91 420 91 425 91L581 91C586 91 586 91 586 96L586 179C586 184 586 184 581 184L425 184C420 184 420 184 420 179L420 96M420 96C420 91 420 91 425 91L581 91C586 91 586 91 586 96L586 179C586 184 586 184 581 184L425 184C420 184 420 184 420 179L420 96" stroke-width="2"/><text stroke="none" fill="#000000" font-size="14" transform="translate(465 97)"><tspan x="0" y="13" dx="0">«</tspan><tspan x="8" y="13" dx="0">O</tspan><tspan x="17" y="13" dx="0">b</tspan><tspan x="24" y="13" dx="0">j</tspan><tspan x="28" y="13" dx="0">e</tspan><tspan x="34" y="13" dx="0">c</tspan><tspan x="40" y="13" dx="0 0">tt</tspan><tspan x="50" y="13" dx="0">y</tspan><tspan x="57" y="13" dx="0">p</tspan><tspan x="64" y="13" dx="0">e</tspan><tspan x="71" y="13" dx="0">»</tspan></text><text stroke="none" fill="#000000" font-weight="700" font-size="14" transform="translate(472 114)"><tspan x="0" y="13" dx="0">Regeltekst</tspan></text><path d="M872 99C872 94 872 94 877 94L1064 94C1069 94 1069 94 1069 99L1069 261C1069 266 1069 266 1064 266L877 266C872 266 872 266 872 261L872 99" stroke="none" fill="#DFDFDF"/><path d="M869 96C869 91 869 91 874 91L1061 91C1066 91 1066 91 1066 96L1066 258C1066 263 1066 263 1061 263L874 263C869 263 869 263 869 258L869 96" stroke="none" stroke-width="2" fill="#CCFFFF"/><path d="M869 96C869 91 869 91 874 91L1061 91C1066 91 1066 91 1066 96L1066 258C1066 263 1066 263 1061 263L874 263C869 263 869 263 869 258L869 96M869 96C869 91 869 91 874 91L1061 91C1066 91 1066 91 1066 96L1066 258C1066 263 1066 263 1061 263L874 263C869 263 869 263 869 258L869 96" stroke-width="2"/><text stroke="none" fill="#000000" font-size="14" transform="translate(930 97)"><tspan x="0" y="13" dx="0">«</tspan><tspan x="8" y="13" dx="0">O</tspan><tspan x="17" y="13" dx="0">b</tspan><tspan x="24" y="13" dx="0">j</tspan><tspan x="28" y="13" dx="0">e</tspan><tspan x="34" y="13" dx="0">c</tspan><tspan x="40" y="13" dx="0 0">tt</tspan><tspan x="50" y="13" dx="0">y</tspan><tspan x="57" y="13" dx="0">p</tspan><tspan x="64" y="13" dx="0">e</tspan><tspan x="71" y="13" dx="0">»</tspan></text><text stroke="none" fill="#000000" font-style="italic" font-weight="700" font-size="14" transform="translate(923 114)"><tspan x="0" y="13" dx="0">Juridische regel</tspan></text><path d="M869 136 1066 136" stroke-width="2"/><text stroke="none" fill="#000000" font-size="14" transform="translate(883 144)"><tspan x="0" y="13" dx="0">«</tspan><tspan x="8" y="13" dx="0">A</tspan><tspan x="16" y="13" dx="0 0">tt</tspan><tspan x="26" y="13" dx="0">r</tspan><tspan x="31" y="13" dx="0">i</tspan><tspan x="34" y="13" dx="0">b</tspan><tspan x="42" y="13" dx="0">u</tspan><tspan x="49" y="13" dx="0">u</tspan><tspan x="57" y="13" dx="0">t</tspan><tspan x="62" y="13" dx="0">s</tspan><tspan x="68" y="13" dx="0">o</tspan><tspan x="75" y="13" dx="0">o</tspan><tspan x="83" y="13" dx="0">r</tspan><tspan x="88" y="13" dx="0">t</tspan><tspan x="93" y="13" dx="0">»</tspan></text><text stroke="none" fill="#2F4F4F" font-size="14" transform="translate(874 161)"><tspan x="0" y="13" dx="0">+</tspan></text><text stroke="none" fill="#2F4F4F" font-size="14" transform="translate(898 161)"><tspan x="0" y="13" dx="0">i</tspan><tspan x="3" y="13" dx="0">d</tspan><tspan x="11" y="13" dx="0">e</tspan><tspan x="18" y="13" dx="0">n</tspan><tspan x="25" y="13" dx="0 0">ti</tspan><tspan x="33" y="13" dx="0 0">fi</tspan><tspan x="41" y="13" dx="0">c</tspan><tspan x="47" y="13" dx="0">a</tspan><tspan x="53" y="13" dx="0 0">ti</tspan><tspan x="62" y="13" dx="0">e</tspan><tspan x="68" y="13" dx="0">:</tspan><tspan x="73" y="13" dx="0"> </tspan><tspan x="76" y="13" dx="0">N</tspan><tspan x="85" y="13" dx="0">E</tspan><tspan x="92" y="13" dx="0">N</tspan><tspan x="101" y="13" dx="0">3</tspan><tspan x="108" y="13" dx="0">6</tspan><tspan x="116" y="13" dx="0">1</tspan><tspan x="123" y="13" dx="0">0</tspan><tspan x="131" y="13" dx="0">I</tspan><tspan x="134" y="13" dx="0">D</tspan><tspan x="143" y="13" dx="0"> </tspan><tspan x="146" y="13" dx="0">{</tspan><tspan x="150" y="13" dx="0">i</tspan><tspan x="153" y="13" dx="0">d</tspan><tspan x="161" y="13" dx="0">}</tspan></text><text stroke="none" fill="#2F4F4F" font-size="14" transform="translate(874 178)"><tspan x="0" y="13" dx="0">+</tspan></text><text stroke="none" fill="#2F4F4F" font-size="14" transform="translate(898 178)"><tspan x="0" y="13" dx="0">i</tspan><tspan x="3" y="13" dx="0">d</tspan><tspan x="11" y="13" dx="0">e</tspan><tspan x="18" y="13" dx="0">a</tspan><tspan x="24" y="13" dx="0">l</tspan><tspan x="28" y="13" dx="0">i</tspan><tspan x="31" y="13" dx="0">s</tspan><tspan x="37" y="13" dx="0">a</tspan><tspan x="43" y="13" dx="0 0">ti</tspan><tspan x="52" y="13" dx="0">e</tspan><tspan x="58" y="13" dx="0">:</tspan><tspan x="63" y="13" dx="0"> </tspan><tspan x="66" y="13" dx="0">I</tspan><tspan x="69" y="13" dx="0">d</tspan><tspan x="77" y="13" dx="0">e</tspan><tspan x="83" y="13" dx="0">a</tspan><tspan x="90" y="13" dx="0">l</tspan><tspan x="93" y="13" dx="0">i</tspan><tspan x="97" y="13" dx="0">s</tspan><tspan x="103" y="13" dx="0">a</tspan><tspan x="109" y="13" dx="0 0">ti</tspan><tspan x="118" y="13" dx="0">e</tspan></text><text stroke="none" fill="#2F4F4F" font-size="14" transform="translate(874 195)"><tspan x="0" y="13" dx="0">+</tspan></text><text stroke="none" fill="#2F4F4F" font-size="14" transform="translate(898 195)"><tspan x="0" y="13" dx="0">thema: Thema [0..*]</tspan></text><path d="M1210 356C1210 351 1210 351 1215 351L1350 351C1355 351 1355 351 1355 356L1355 415C1355 420 1355 420 1350 420L1215 420C1210 420 1210 420 1210 415L1210 356" stroke="none" fill="#DFDFDF"/><path d="M1207 353C1207 348 1207 348 1212 348L1347 348C1352 348 1352 348 1352 353L1352 412C1352 417 1352 417 1347 417L1212 417C1207 417 1207 417 1207 412L1207 353" stroke="none" stroke-width="2" fill="#CCFFFF"/><path d="M1207 353C1207 348 1207 348 1212 348L1347 348C1352 348 1352 348 1352 353L1352 412C1352 417 1352 417 1347 417L1212 417C1207 417 1207 417 1207 412L1207 353M1207 353C1207 348 1207 348 1212 348L1347 348C1352 348 1352 348 1352 353L1352 412C1352 417 1352 417 1347 417L1212 417C1207 417 1207 417 1207 412L1207 353" stroke-width="2"/><text stroke="none" fill="#000000" font-size="14" transform="translate(1242 354)"><tspan x="0" y="13" dx="0">«</tspan><tspan x="8" y="13" dx="0">O</tspan><tspan x="17" y="13" dx="0">b</tspan><tspan x="24" y="13" dx="0">j</tspan><tspan x="28" y="13" dx="0">e</tspan><tspan x="34" y="13" dx="0">c</tspan><tspan x="40" y="13" dx="0 0">tt</tspan><tspan x="50" y="13" dx="0">y</tspan><tspan x="57" y="13" dx="0">p</tspan><tspan x="64" y="13" dx="0">e</tspan><tspan x="71" y="13" dx="0">»</tspan></text><text stroke="none" fill="#000000" font-weight="700" font-size="14" transform="translate(1230 371)"><tspan x="0" y="13" dx="0">Juridische regel::</tspan><tspan x="-21" y="30" dx="0">Omgevingswaarderegel</tspan></text><path d="M787 356C787 351 787 351 792 351L1134 351C1139 351 1139 351 1139 356L1139 501C1139 506 1139 506 1134 506L792 506C787 506 787 506 787 501L787 356" stroke="none" fill="#DFDFDF"/><path d="M784 353C784 348 784 348 789 348L1131 348C1136 348 1136 348 1136 353L1136 498C1136 503 1136 503 1131 503L789 503C784 503 784 503 784 498L784 353" stroke="none" stroke-width="2" fill="#CCFFFF"/><path d="M784 353C784 348 784 348 789 348L1131 348C1136 348 1136 348 1136 353L1136 498C1136 503 1136 503 1131 503L789 503C784 503 784 503 784 498L784 353M784 353C784 348 784 348 789 348L1131 348C1136 348 1136 348 1136 353L1136 498C1136 503 1136 503 1131 503L789 503C784 503 784 503 784 498L784 353" stroke-width="2"/><text stroke="none" fill="#000000" font-size="14" transform="translate(922 354)"><tspan x="0" y="13" dx="0">«</tspan><tspan x="8" y="13" dx="0">O</tspan><tspan x="17" y="13" dx="0">b</tspan><tspan x="24" y="13" dx="0">j</tspan><tspan x="28" y="13" dx="0">e</tspan><tspan x="34" y="13" dx="0">c</tspan><tspan x="40" y="13" dx="0 0">tt</tspan><tspan x="50" y="13" dx="0">y</tspan><tspan x="57" y="13" dx="0">p</tspan><tspan x="64" y="13" dx="0">e</tspan><tspan x="71" y="13" dx="0">»</tspan></text><text stroke="none" fill="#000000" font-weight="700" font-size="14" transform="translate(867 371)"><tspan x="0" y="13" dx="0">J</tspan><tspan x="5" y="13" dx="0">u</tspan><tspan x="13" y="13" dx="0">r</tspan><tspan x="18" y="13" dx="0">i</tspan><tspan x="21" y="13" dx="0">d</tspan><tspan x="28" y="13" dx="0">i</tspan><tspan x="32" y="13" dx="0">s</tspan><tspan x="38" y="13" dx="0">c</tspan><tspan x="43" y="13" dx="0">h</tspan><tspan x="51" y="13" dx="0">e</tspan><tspan x="58" y="13" dx="0"> </tspan><tspan x="62" y="13" dx="0">r</tspan><tspan x="67" y="13" dx="0">e</tspan><tspan x="74" y="13" dx="0">g</tspan><tspan x="81" y="13" dx="0">e</tspan><tspan x="88" y="13" dx="0">l</tspan><tspan x="92" y="13" dx="0">:</tspan><tspan x="96" y="13" dx="0">:</tspan><tspan x="100" y="13" dx="0">I</tspan><tspan x="104" y="13" dx="0">n</tspan><tspan x="112" y="13" dx="0">s</tspan><tspan x="118" y="13" dx="0">t</tspan><tspan x="123" y="13" dx="0">r</tspan><tspan x="128" y="13" dx="0">u</tspan><tspan x="135" y="13" dx="0">c</tspan><tspan x="141" y="13" dx="0 0">ti</tspan><tspan x="149" y="13" dx="0">e</tspan><tspan x="157" y="13" dx="0">r</tspan><tspan x="162" y="13" dx="0">e</tspan><tspan x="169" y="13" dx="0">g</tspan><tspan x="176" y="13" dx="0">e</tspan><tspan x="183" y="13" dx="0">l</tspan></text><path d="M784 393 1136 393" stroke-width="2"/><text stroke="none" fill="#000000" font-size="14" transform="translate(798 401)"><tspan x="0" y="13" dx="0">«</tspan><tspan x="8" y="13" dx="0">A</tspan><tspan x="16" y="13" dx="0 0">tt</tspan><tspan x="26" y="13" dx="0">r</tspan><tspan x="31" y="13" dx="0">i</tspan><tspan x="34" y="13" dx="0">b</tspan><tspan x="42" y="13" dx="0">u</tspan><tspan x="49" y="13" dx="0">u</tspan><tspan x="57" y="13" dx="0">t</tspan><tspan x="62" y="13" dx="0">s</tspan><tspan x="68" y="13" dx="0">o</tspan><tspan x="75" y="13" dx="0">o</tspan><tspan x="83" y="13" dx="0">r</tspan><tspan x="88" y="13" dx="0">t</tspan><tspan x="93" y="13" dx="0">»</tspan></text><text stroke="none" fill="#2F4F4F" font-size="14" transform="translate(789 418)"><tspan x="0" y="13" dx="0">+</tspan></text><text stroke="none" fill="#2F4F4F" font-size="14" transform="translate(813 418)"><tspan x="0" y="13" dx="0">i</tspan><tspan x="3" y="13" dx="0">n</tspan><tspan x="11" y="13" dx="0">s</tspan><tspan x="17" y="13" dx="0">t</tspan><tspan x="22" y="13" dx="0">r</tspan><tspan x="27" y="13" dx="0">u</tspan><tspan x="34" y="13" dx="0">c</tspan><tspan x="40" y="13" dx="0 0">ti</tspan><tspan x="48" y="13" dx="0">e</tspan><tspan x="55" y="13" dx="0">r</tspan><tspan x="60" y="13" dx="0">e</tspan><tspan x="67" y="13" dx="0">g</tspan><tspan x="73" y="13" dx="0">e</tspan><tspan x="80" y="13" dx="0">l</tspan><tspan x="83" y="13" dx="0">I</tspan><tspan x="87" y="13" dx="0">n</tspan><tspan x="94" y="13" dx="0">s</tspan><tspan x="100" y="13" dx="0">t</tspan><tspan x="105" y="13" dx="0">r</tspan><tspan x="110" y="13" dx="0">u</tspan><tspan x="118" y="13" dx="0">m</tspan><tspan x="129" y="13" dx="0">e</tspan><tspan x="136" y="13" dx="0">n</tspan><tspan x="143" y="13" dx="0">t</tspan><tspan x="148" y="13" dx="0">:</tspan><tspan x="153" y="13" dx="0"> </tspan><tspan x="156" y="13" dx="0">I</tspan><tspan x="159" y="13" dx="0">n</tspan><tspan x="167" y="13" dx="0">s</tspan><tspan x="173" y="13" dx="0">t</tspan><tspan x="178" y="13" dx="0">r</tspan><tspan x="183" y="13" dx="0">u</tspan><tspan x="190" y="13" dx="0">m</tspan><tspan x="202" y="13" dx="0">e</tspan><tspan x="209" y="13" dx="0">n</tspan><tspan x="216" y="13" dx="0">t</tspan><tspan x="221" y="13" dx="0"> </tspan><tspan x="224" y="13" dx="0">[</tspan><tspan x="229" y="13" dx="0">0</tspan><tspan x="236" y="13" dx="0">.</tspan><tspan x="239" y="13" dx="0">.</tspan><tspan x="243" y="13" dx="0">*</tspan><tspan x="249" y="13" dx="0">]</tspan></text><text stroke="none" fill="#2F4F4F" font-size="14" transform="translate(789 435)"><tspan x="0" y="13" dx="0">+</tspan></text><text stroke="none" fill="#2F4F4F" font-size="14" transform="translate(813 435)"><tspan x="0" y="13" dx="0">i</tspan><tspan x="3" y="13" dx="0">n</tspan><tspan x="11" y="13" dx="0">s</tspan><tspan x="17" y="13" dx="0">t</tspan><tspan x="22" y="13" dx="0">r</tspan><tspan x="27" y="13" dx="0">u</tspan><tspan x="34" y="13" dx="0">c</tspan><tspan x="40" y="13" dx="0 0">ti</tspan><tspan x="48" y="13" dx="0">e</tspan><tspan x="55" y="13" dx="0">r</tspan><tspan x="60" y="13" dx="0">e</tspan><tspan x="67" y="13" dx="0">g</tspan><tspan x="73" y="13" dx="0">e</tspan><tspan x="80" y="13" dx="0">l</tspan><tspan x="83" y="13" dx="0">T</tspan><tspan x="90" y="13" dx="0">a</tspan><tspan x="97" y="13" dx="0">a</tspan><tspan x="103" y="13" dx="0">k</tspan><tspan x="110" y="13" dx="0">u</tspan><tspan x="118" y="13" dx="0">i</tspan><tspan x="121" y="13" dx="0">t</tspan><tspan x="126" y="13" dx="0">o</tspan><tspan x="133" y="13" dx="0">e</tspan><tspan x="140" y="13" dx="0">f</tspan><tspan x="144" y="13" dx="0">e</tspan><tspan x="151" y="13" dx="0">n</tspan><tspan x="158" y="13" dx="0">i</tspan><tspan x="162" y="13" dx="0">n</tspan><tspan x="169" y="13" dx="0">g</tspan><tspan x="176" y="13" dx="0">:</tspan><tspan x="180" y="13" dx="0"> </tspan><tspan x="183" y="13" dx="0">A</tspan><tspan x="192" y="13" dx="0">d</tspan><tspan x="199" y="13" dx="0">r</tspan><tspan x="204" y="13" dx="0">e</tspan><tspan x="211" y="13" dx="0">s</tspan><tspan x="217" y="13" dx="0">s</tspan><tspan x="223" y="13" dx="0">a</tspan><tspan x="229" y="13" dx="0">a</tspan><tspan x="236" y="13" dx="0">t</tspan><tspan x="241" y="13" dx="0"> </tspan><tspan x="244" y="13" dx="0">[</tspan><tspan x="249" y="13" dx="0">0</tspan><tspan x="256" y="13" dx="0">.</tspan><tspan x="259" y="13" dx="0">.</tspan><tspan x="263" y="13" dx="0">*</tspan><tspan x="269" y="13" dx="0">]</tspan></text><path d="M784 456 1136 456" stroke-width="2"/><text stroke="none" fill="#000000" font-style="italic" font-size="14" transform="translate(929 460)"><tspan x="0" y="13" dx="0">constraints</tspan></text><text stroke="none" fill="#000000" font-size="14" transform="translate(788 477)"><tspan x="0" y="13" dx="0">{</tspan><tspan x="4" y="13" dx="0">i</tspan><tspan x="7" y="13" dx="0">n</tspan><tspan x="15" y="13" dx="0">s</tspan><tspan x="21" y="13" dx="0">t</tspan><tspan x="25" y="13" dx="0">r</tspan><tspan x="30" y="13" dx="0">u</tspan><tspan x="38" y="13" dx="0">c</tspan><tspan x="44" y="13" dx="0 0">ti</tspan><tspan x="51" y="13" dx="0">e</tspan><tspan x="58" y="13" dx="0">r</tspan><tspan x="63" y="13" dx="0">e</tspan><tspan x="69" y="13" dx="0">g</tspan><tspan x="76" y="13" dx="0">e</tspan><tspan x="83" y="13" dx="0">l</tspan><tspan x="86" y="13" dx="0">I</tspan><tspan x="88" y="13" dx="0">n</tspan><tspan x="96" y="13" dx="0">s</tspan><tspan x="102" y="13" dx="0">t</tspan><tspan x="107" y="13" dx="0">r</tspan><tspan x="111" y="13" dx="0">u</tspan><tspan x="119" y="13" dx="0">m</tspan><tspan x="131" y="13" dx="0">e</tspan><tspan x="138" y="13" dx="0">n</tspan><tspan x="145" y="13" dx="0">t</tspan><tspan x="150" y="13" dx="0"> </tspan><tspan x="153" y="13" dx="0">o</tspan><tspan x="161" y="13" dx="0">f</tspan><tspan x="165" y="13" dx="0"> </tspan><tspan x="168" y="13" dx="0">i</tspan><tspan x="170" y="13" dx="0">n</tspan><tspan x="178" y="13" dx="0">s</tspan><tspan x="184" y="13" dx="0">t</tspan><tspan x="189" y="13" dx="0">r</tspan><tspan x="193" y="13" dx="0">u</tspan><tspan x="201" y="13" dx="0">c</tspan><tspan x="207" y="13" dx="0 0">ti</tspan><tspan x="214" y="13" dx="0">e</tspan><tspan x="221" y="13" dx="0">r</tspan><tspan x="226" y="13" dx="0">e</tspan><tspan x="233" y="13" dx="0">g</tspan><tspan x="239" y="13" dx="0">e</tspan><tspan x="246" y="13" dx="0">l</tspan><tspan x="249" y="13" dx="0">T</tspan><tspan x="256" y="13" dx="0">a</tspan><tspan x="262" y="13" dx="0">a</tspan><tspan x="269" y="13" dx="0">k</tspan><tspan x="276" y="13" dx="0">u</tspan><tspan x="284" y="13" dx="0">i</tspan><tspan x="286" y="13" dx="0">t</tspan><tspan x="291" y="13" dx="0">o</tspan><tspan x="299" y="13" dx="0">e</tspan><tspan x="306" y="13" dx="0">f</tspan><tspan x="309" y="13" dx="0">e</tspan><tspan x="316" y="13" dx="0">n</tspan><tspan x="324" y="13" dx="0">i</tspan><tspan x="327" y="13" dx="0">n</tspan><tspan x="334" y="13" dx="0">g</tspan><tspan x="341" y="13" dx="0">}</tspan></text><path d="M322 356C322 351 322 351 327 351L658 351C663 351 663 351 663 356L663 410C663 415 663 415 658 415L327 415C322 415 322 415 322 410L322 356" stroke="none" fill="#DFDFDF"/><path d="M319 353C319 348 319 348 324 348L655 348C660 348 660 348 660 353L660 407C660 412 660 412 655 412L324 412C319 412 319 412 319 407L319 353" stroke="none" stroke-width="2" fill="#CCFFFF"/><path d="M319 353C319 348 319 348 324 348L655 348C660 348 660 348 660 353L660 407C660 412 660 412 655 412L324 412C319 412 319 412 319 407L319 353M319 353C319 348 319 348 324 348L655 348C660 348 660 348 660 353L660 407C660 412 660 412 655 412L324 412C319 412 319 412 319 407L319 353" stroke-width="2"/><text stroke="none" fill="#000000" font-size="14" transform="translate(452 354)"><tspan x="0" y="13" dx="0">«</tspan><tspan x="8" y="13" dx="0">O</tspan><tspan x="17" y="13" dx="0">b</tspan><tspan x="24" y="13" dx="0">j</tspan><tspan x="28" y="13" dx="0">e</tspan><tspan x="34" y="13" dx="0">c</tspan><tspan x="40" y="13" dx="0 0">tt</tspan><tspan x="50" y="13" dx="0">y</tspan><tspan x="57" y="13" dx="0">p</tspan><tspan x="64" y="13" dx="0">e</tspan><tspan x="71" y="13" dx="0">»</tspan></text><text stroke="none" fill="#000000" font-weight="700" font-size="14" transform="translate(380 371)"><tspan x="0" y="13" dx="0">Juridische regel::Regel voor iedereen</tspan></text><path d="M783 807C783 802 783 802 788 802L978 802C983 802 983 802 983 807L983 913C983 918 983 918 978 918L788 918C783 918 783 918 783 913L783 807" stroke="none" fill="#DFDFDF"/><path d="M780 804C780 799 780 799 785 799L975 799C980 799 980 799 980 804L980 910C980 915 980 915 975 915L785 915C780 915 780 915 780 910L780 804" stroke="none" stroke-width="2" fill="#FFE4E1"/><path d="M780 804C780 799 780 799 785 799L975 799C980 799 980 799 980 804L980 910C980 915 980 915 975 915L785 915C780 915 780 915 780 910L780 804M780 804C780 799 780 799 785 799L975 799C980 799 980 799 980 804L980 910C980 915 980 915 975 915L785 915C780 915 780 915 780 910L780 804" stroke-width="2"/><text stroke="none" fill="#000000" font-size="13" transform="translate(844 805)"><tspan x="0" y="13" dx="0">«</tspan><tspan x="7" y="13" dx="0">O</tspan><tspan x="16" y="13" dx="0">b</tspan><tspan x="23" y="13" dx="0">j</tspan><tspan x="26" y="13" dx="0">e</tspan><tspan x="33" y="13" dx="0">c</tspan><tspan x="38" y="13" dx="0 0">tt</tspan><tspan x="47" y="13" dx="0">y</tspan><tspan x="53" y="13" dx="0">p</tspan><tspan x="59" y="13" dx="0">e</tspan><tspan x="66" y="13" dx="0">»</tspan></text><text stroke="none" fill="#000000" font-style="italic" font-weight="700" font-size="13" transform="translate(860 820)"><tspan x="0" y="13" dx="0">L</tspan><tspan x="6" y="13" dx="0">o</tspan><tspan x="13" y="13" dx="0">c</tspan><tspan x="18" y="13" dx="0">a</tspan><tspan x="25" y="13" dx="0 0">ti</tspan><tspan x="33" y="13" dx="0">e</tspan></text><path d="M364 842C364 837 364 837 369 837L506 837C511 837 511 837 511 842L511 932C511 937 511 937 506 937L369 937C364 937 364 937 364 932L364 842" stroke="none" fill="#DFDFDF"/><path d="M361 839C361 834 361 834 366 834L503 834C508 834 508 834 508 839L508 929C508 934 508 934 503 934L366 934C361 934 361 934 361 929L361 839" stroke="none" stroke-width="2" fill="#CCFFCC"/><path d="M361 839C361 834 361 834 366 834L503 834C508 834 508 834 508 839L508 929C508 934 508 934 503 934L366 934C361 934 361 934 361 929L361 839M361 839C361 834 361 834 366 834L503 834C508 834 508 834 508 839L508 929C508 934 508 934 503 934L366 934C361 934 361 934 361 929L361 839" stroke-width="2"/><text stroke="none" fill="#000000" font-size="13" transform="translate(398 840)"><tspan x="0" y="13" dx="0">«</tspan><tspan x="7" y="13" dx="0">O</tspan><tspan x="16" y="13" dx="0">b</tspan><tspan x="23" y="13" dx="0">j</tspan><tspan x="26" y="13" dx="0">e</tspan><tspan x="33" y="13" dx="0">c</tspan><tspan x="38" y="13" dx="0 0">tt</tspan><tspan x="47" y="13" dx="0">y</tspan><tspan x="53" y="13" dx="0">p</tspan><tspan x="59" y="13" dx="0">e</tspan><tspan x="66" y="13" dx="0">»</tspan></text><text stroke="none" fill="#000000" font-weight="700" font-size="13" transform="translate(408 855)"><tspan x="0" y="13" dx="0">A</tspan><tspan x="8" y="13" dx="0">c</tspan><tspan x="14" y="13" dx="0 0">ti</tspan><tspan x="23" y="13" dx="0">v</tspan><tspan x="29" y="13" dx="0">i</tspan><tspan x="33" y="13" dx="0">t</tspan><tspan x="38" y="13" dx="0">e</tspan><tspan x="44" y="13" dx="0">i</tspan><tspan x="48" y="13" dx="0">t</tspan></text><path d="M975 645C975 640 975 640 980 640L1129 640C1134 640 1134 640 1134 645L1134 726C1134 731 1134 731 1129 731L980 731C975 731 975 731 975 726L975 645" stroke="none" fill="#DFDFDF"/><path d="M972 642C972 637 972 637 977 637L1126 637C1131 637 1131 637 1131 642L1131 723C1131 728 1131 728 1126 728L977 728C972 728 972 728 972 723L972 642" stroke="none" stroke-width="2" fill="#CCFFCC"/><path d="M972 642C972 637 972 637 977 637L1126 637C1131 637 1131 637 1131 642L1131 723C1131 728 1131 728 1126 728L977 728C972 728 972 728 972 723L972 642M972 642C972 637 972 637 977 637L1126 637C1131 637 1131 637 1131 642L1131 723C1131 728 1131 728 1126 728L977 728C972 728 972 728 972 723L972 642" stroke-width="2"/><text stroke="none" fill="#000000" font-size="13" transform="translate(1015 643)"><tspan x="0" y="13" dx="0">«</tspan><tspan x="7" y="13" dx="0">O</tspan><tspan x="16" y="13" dx="0">b</tspan><tspan x="23" y="13" dx="0">j</tspan><tspan x="26" y="13" dx="0">e</tspan><tspan x="33" y="13" dx="0">c</tspan><tspan x="38" y="13" dx="0 0">tt</tspan><tspan x="47" y="13" dx="0">y</tspan><tspan x="53" y="13" dx="0">p</tspan><tspan x="59" y="13" dx="0">e</tspan><tspan x="66" y="13" dx="0">»</tspan></text><text stroke="none" fill="#000000" font-weight="700" font-size="13" transform="translate(1005 658)"><tspan x="0" y="13" dx="0">Omgevingsnorm</tspan></text><path d="M1214 648C1214 643 1214 643 1219 643L1347 643C1352 643 1352 643 1352 648L1352 721C1352 726 1352 726 1347 726L1219 726C1214 726 1214 726 1214 721L1214 648" stroke="none" fill="#DFDFDF"/><path d="M1211 645C1211 640 1211 640 1216 640L1344 640C1349 640 1349 640 1349 645L1349 718C1349 723 1349 723 1344 723L1216 723C1211 723 1211 723 1211 718L1211 645" stroke="none" stroke-width="2" fill="#CCFFCC"/><path d="M1211 645C1211 640 1211 640 1216 640L1344 640C1349 640 1349 640 1349 645L1349 718C1349 723 1349 723 1344 723L1216 723C1211 723 1211 723 1211 718L1211 645M1211 645C1211 640 1211 640 1216 640L1344 640C1349 640 1349 640 1349 645L1349 718C1349 723 1349 723 1344 723L1216 723C1211 723 1211 723 1211 718L1211 645" stroke-width="2"/><text stroke="none" fill="#000000" font-size="13" transform="translate(1244 646)"><tspan x="0" y="13" dx="0">«</tspan><tspan x="7" y="13" dx="0">O</tspan><tspan x="16" y="13" dx="0">b</tspan><tspan x="23" y="13" dx="0">j</tspan><tspan x="26" y="13" dx="0">e</tspan><tspan x="33" y="13" dx="0">c</tspan><tspan x="38" y="13" dx="0 0">tt</tspan><tspan x="47" y="13" dx="0">y</tspan><tspan x="53" y="13" dx="0">p</tspan><tspan x="59" y="13" dx="0">e</tspan><tspan x="66" y="13" dx="0">»</tspan></text><text stroke="none" fill="#000000" font-weight="700" font-size="13" transform="translate(1228 661)"><tspan x="0" y="13" dx="0">Omgevingswaarde</tspan></text><path d="M488 595C488 590 488 590 493 590L642 590C647 590 647 590 647 595L647 701C647 706 647 706 642 706L493 706C488 706 488 706 488 701L488 595" stroke="none" fill="#DFDFDF"/><path d="M485 592C485 587 485 587 490 587L639 587C644 587 644 587 644 592L644 698C644 703 644 703 639 703L490 703C485 703 485 703 485 698L485 592" stroke="none" stroke-width="2" fill="#CCFFCC"/><path d="M485 592C485 587 485 587 490 587L639 587C644 587 644 587 644 592L644 698C644 703 644 703 639 703L490 703C485 703 485 703 485 698L485 592M485 592C485 587 485 587 490 587L639 587C644 587 644 587 644 592L644 698C644 703 644 703 639 703L490 703C485 703 485 703 485 698L485 592" stroke-width="2"/><text stroke="none" fill="#000000" font-size="13" transform="translate(528 593)"><tspan x="0" y="13" dx="0">«</tspan><tspan x="7" y="13" dx="0">O</tspan><tspan x="16" y="13" dx="0">b</tspan><tspan x="23" y="13" dx="0">j</tspan><tspan x="26" y="13" dx="0">e</tspan><tspan x="33" y="13" dx="0">c</tspan><tspan x="38" y="13" dx="0 0">tt</tspan><tspan x="47" y="13" dx="0">y</tspan><tspan x="53" y="13" dx="0">p</tspan><tspan x="59" y="13" dx="0">e</tspan><tspan x="66" y="13" dx="0">»</tspan></text><text stroke="none" fill="#000000" font-weight="700" font-size="13" transform="translate(512 608)"><tspan x="0" y="13" dx="0">Gebiedsaanwijzing</tspan></text><path d="M439 737C439 732 439 732 444 732L742 732C747 732 747 732 747 737L747 789C747 794 747 794 742 794L444 794C439 794 439 794 439 789L439 737" stroke="none" fill="#DFDFDF"/><path d="M436 734C436 729 436 729 441 729L739 729C744 729 744 729 744 734L744 786C744 791 744 791 739 791L441 791C436 791 436 791 436 786L436 734" stroke="none" stroke-width="2" fill="#CCFFCC"/><path d="M436 734C436 729 436 729 441 729L739 729C744 729 744 729 744 734L744 786C744 791 744 791 739 791L441 791C436 791 436 791 436 786L436 734M436 734C436 729 436 729 441 729L739 729C744 729 744 729 744 734L744 786C744 791 744 791 739 791L441 791C436 791 436 791 436 786L436 734" stroke-width="2"/><text stroke="none" fill="#000000" font-size="13" transform="translate(554 735)"><tspan x="0" y="13" dx="0">«</tspan><tspan x="7" y="13" dx="0">O</tspan><tspan x="16" y="13" dx="0">b</tspan><tspan x="23" y="13" dx="0">j</tspan><tspan x="26" y="13" dx="0">e</tspan><tspan x="33" y="13" dx="0">c</tspan><tspan x="38" y="13" dx="0 0">tt</tspan><tspan x="47" y="13" dx="0">y</tspan><tspan x="53" y="13" dx="0">p</tspan><tspan x="59" y="13" dx="0">e</tspan><tspan x="66" y="13" dx="0">»</tspan></text><text stroke="none" fill="#000000" font-weight="700" font-size="13" transform="translate(511 750)"><tspan x="0" y="13" dx="0">A</tspan><tspan x="8" y="13" dx="0">c</tspan><tspan x="14" y="13" dx="0 0">ti</tspan><tspan x="23" y="13" dx="0">v</tspan><tspan x="29" y="13" dx="0">i</tspan><tspan x="33" y="13" dx="0">t</tspan><tspan x="38" y="13" dx="0">e</tspan><tspan x="44" y="13" dx="0">i</tspan><tspan x="48" y="13" dx="0">t</tspan><tspan x="53" y="13" dx="0">L</tspan><tspan x="58" y="13" dx="0">o</tspan><tspan x="66" y="13" dx="0">c</tspan><tspan x="72" y="13" dx="0">a</tspan><tspan x="78" y="13" dx="0 0">ti</tspan><tspan x="87" y="13" dx="0">e</tspan><tspan x="93" y="13" dx="0">a</tspan><tspan x="100" y="13" dx="0">a</tspan><tspan x="107" y="13" dx="0">n</tspan><tspan x="114" y="13" dx="0">d</tspan><tspan x="122" y="13" dx="0">u</tspan><tspan x="129" y="13" dx="0">i</tspan><tspan x="133" y="13" dx="0">d</tspan><tspan x="140" y="13" dx="0">i</tspan><tspan x="143" y="13" dx="0">n</tspan><tspan x="151" y="13" dx="0">g</tspan></text><path d="M490 347 490 314M490 314 968 314M968 314 968 265" stroke-width="2"/><path d="M974 281 962 281 968 265 974 281" stroke-width="2" fill="#F7DDB4"/><path d="M1063 504 1063 636M1063 636 1057 621M1063 636 1069 621" stroke-width="2"/><path d="M587 115 610 115M610 115 610 60M610 60 572 60M572 60 572 91M572 91 566 76M572 91 578 76" stroke-width="2"/><path d="M558 413 558 558M558 558 1015 558M1015 558 1015 637M1015 637 1009 622M1015 637 1021 622" stroke-width="2"/><path d="M406 414 403 833M403 833 397 818M403 833 409 818"/><path d="M404 623 411 628M415 631 422 636M426 639 433 644M437 647 444 652M448 655 455 660M459 663 466 668M470 671 477 676M481 679 488 684M492 687 499 692M503 695 510 701M514 703 521 709M525 712 532 717M536 720 543 725M547 728 548 729"/><path d="M868 150 588 150M588 150 603 144M588 150 603 156" stroke-width="2"/><path d="M645 671 881 671M881 671 881 799M881 799 875 784M881 799 887 784" stroke-width="2"/><path d="M1280 347 1280 314M1280 314 968 314" stroke-width="2"/><path d="M968 347 968 314" stroke-width="2"/><path d="M604 792 604 872M604 872 780 872M780 872 765 878M780 872 765 866" stroke-width="2"/><path d="M1067 179 1426 179M1426 179 1426 856M1426 856 981 856M981 856 996 850M981 856 996 862" stroke-width="2"/><path d="M869 203 730 203M730 203 729.05 307.5C729.03 307.5 729.02 307.5 729 307.5 726.46 308 724 310.46 724 313.5 724 316.54 726.46 319 729.5 319 729.01 318.5 729.01 318.5 729.02 318.5M729 318 729.02 551.5C729.01 551.5 729.01 551.5 729 551.5 726.46 552 724 554.46 724 557.5 724 560.54 726.46 563 729.5 563 729.04 562.5 729.07 562.5 729.11 562.5M729 562 730 609M730 609 645 609M645 609 660 603M645 609 660 615" stroke-width="2"/><path d="M1280 419 1280 639M1280 639 1274 624M1280 639 1286 624" stroke-width="2"/><g transform="matrix(1 0 0 -1 1071 509)"><rect x="0" y="-10" width="13" height="10" stroke="none" fill="#FFFFFF"/></g><text stroke="none" fill="#000000" transform="translate(1071 509)"><tspan x="0" y="8" dx="0">0..*</tspan></text><g transform="matrix(1 0 0 -1 1102 596)"><rect x="0" y="-10" width="95" height="10" stroke="none" fill="#FFFFFF"/></g><text stroke="none" fill="#000000" transform="translate(1102 596)"><tspan x="0" y="8" dx="0">+omgevingsnormaanduiding</tspan></text><g transform="matrix(1 0 0 -1 1102 606)"><rect x="0" y="-10" width="39" height="10" stroke="none" fill="#FFFFFF"/></g><text stroke="none" fill="#000000" transform="translate(1102 606)"><tspan x="0" y="8" dx="0">«</tspan><tspan x="4" y="8" dx="0">R</tspan><tspan x="8.25" y="8" dx="0">e</tspan><tspan x="12" y="8" dx="0">l</tspan><tspan x="14" y="8" dx="0">a</tspan><tspan x="17.5" y="8" dx="0 0">ti</tspan><tspan x="22.25" y="8" dx="0">e</tspan><tspan x="26" y="8" dx="0">r</tspan><tspan x="28.75" y="8" dx="0">o</tspan><tspan x="32.75" y="8" dx="0">l</tspan><tspan x="34.75" y="8" dx="0">»</tspan></text><g transform="matrix(1 0 0 -1 1076 622)"><rect x="0" y="-10" width="13" height="10" stroke="none" fill="#FFFFFF"/></g><text stroke="none" fill="#000000" transform="translate(1076 622)"><tspan x="0" y="8" dx="0">0..*</tspan></text><g transform="matrix(1 0 0 -1 849 157)"><rect x="0" y="-10" width="13" height="10" stroke="none" fill="#FFFFFF"/></g><text stroke="none" fill="#000000" transform="translate(849 157)"><tspan x="0" y="8" dx="0">1..*</tspan></text><g transform="matrix(1 0 0 -1 604 165)"><rect x="0" y="-10" width="43" height="10" stroke="none" fill="#FFFFFF"/></g><text stroke="none" fill="#000000" transform="translate(604 165)"><tspan x="0" y="8" dx="0">+</tspan><tspan x="4.25" y="8" dx="0">a</tspan><tspan x="8.25" y="8" dx="0">r</tspan><tspan x="11" y="8" dx="0 0">ti</tspan><tspan x="15.75" y="8" dx="0">k</tspan><tspan x="19.5" y="8" dx="0">e</tspan><tspan x="23.75" y="8" dx="0">l</tspan><tspan x="25.75" y="8" dx="0">O</tspan><tspan x="31" y="8" dx="0">f</tspan><tspan x="33.5" y="8" dx="0">L</tspan><tspan x="36.75" y="8" dx="0">i</tspan><tspan x="38.75" y="8" dx="0">d</tspan></text><g transform="matrix(1 0 0 -1 604 175)"><rect x="0" y="-10" width="39" height="10" stroke="none" fill="#FFFFFF"/></g><text stroke="none" fill="#000000" transform="translate(604 175)"><tspan x="0" y="8" dx="0">«</tspan><tspan x="4" y="8" dx="0">R</tspan><tspan x="8.25" y="8" dx="0">e</tspan><tspan x="12" y="8" dx="0">l</tspan><tspan x="14" y="8" dx="0">a</tspan><tspan x="17.5" y="8" dx="0 0">ti</tspan><tspan x="22.25" y="8" dx="0">e</tspan><tspan x="26" y="8" dx="0">r</tspan><tspan x="28.75" y="8" dx="0">o</tspan><tspan x="32.75" y="8" dx="0">l</tspan><tspan x="34.75" y="8" dx="0">»</tspan></text><g transform="matrix(1 0 0 -1 566 418)"><rect x="0" y="-10" width="13" height="10" stroke="none" fill="#FFFFFF"/></g><text stroke="none" fill="#000000" transform="translate(566 418)"><tspan x="0" y="8" dx="0">0..*</tspan></text><g transform="matrix(1 0 0 -1 919 601)"><rect x="0" y="-10" width="95" height="10" stroke="none" fill="#FFFFFF"/></g><text stroke="none" fill="#000000" transform="translate(919 601)"><tspan x="0" y="8" dx="0">+omgevingsnormaanduiding</tspan></text><g transform="matrix(1 0 0 -1 975 611)"><rect x="0" y="-10" width="39" height="10" stroke="none" fill="#FFFFFF"/></g><text stroke="none" fill="#000000" transform="translate(975 611)"><tspan x="0" y="8" dx="0">«</tspan><tspan x="4" y="8" dx="0">R</tspan><tspan x="8.25" y="8" dx="0">e</tspan><tspan x="12" y="8" dx="0">l</tspan><tspan x="14" y="8" dx="0">a</tspan><tspan x="17.5" y="8" dx="0 0">ti</tspan><tspan x="22.25" y="8" dx="0">e</tspan><tspan x="26" y="8" dx="0">r</tspan><tspan x="28.75" y="8" dx="0">o</tspan><tspan x="32.75" y="8" dx="0">l</tspan><tspan x="34.75" y="8" dx="0">»</tspan></text><g transform="matrix(1 0 0 -1 1023 622)"><rect x="0" y="-10" width="13" height="10" stroke="none" fill="#FFFFFF"/></g><text stroke="none" fill="#000000" transform="translate(1023 622)"><tspan x="0" y="8" dx="0">0..*</tspan></text><g transform="matrix(1 0 0 -1 598 31)"><rect x="0" y="-10" width="82" height="10" stroke="none" fill="#FFFFFF"/></g><text stroke="none" fill="#000000" transform="translate(598 31)"><tspan x="0" y="8" dx="0">+gerelateerdeRegeltekst</tspan></text><g transform="matrix(1 0 0 -1 598 41)"><rect x="0" y="-10" width="54" height="10" stroke="none" fill="#FFFFFF"/></g><text stroke="none" fill="#000000" transform="translate(598 41)"><tspan x="0" y="8" dx="0">«</tspan><tspan x="4" y="8" dx="0">R</tspan><tspan x="8.25" y="8" dx="0">e</tspan><tspan x="12.25" y="8" dx="0">l</tspan><tspan x="14.25" y="8" dx="0">a</tspan><tspan x="18" y="8" dx="0 0">ti</tspan><tspan x="22.75" y="8" dx="0">e</tspan><tspan x="26.75" y="8" dx="0">r</tspan><tspan x="29.5" y="8" dx="0">o</tspan><tspan x="33.75" y="8" dx="0">l</tspan><tspan x="35.75" y="8" dx="0">»</tspan><tspan x="40" y="8" dx="0"> </tspan><tspan x="42" y="8" dx="0">0</tspan><tspan x="46" y="8" dx="0">.</tspan><tspan x="48" y="8" dx="0">.</tspan><tspan x="50" y="8" dx="0">*</tspan></text><g transform="matrix(1 0 0 -1 854 208)"><rect x="0" y="-10" width="13" height="10" stroke="none" fill="#FFFFFF"/></g><text stroke="none" fill="#000000" transform="translate(854 208)"><tspan x="0" y="8" dx="0">0..*</tspan></text><g transform="matrix(1 0 0 -1 680 582)"><rect x="0" y="-10" width="65" height="10" stroke="none" fill="#FFFFFF"/></g><text stroke="none" fill="#000000" transform="translate(680 582)"><tspan x="0" y="8" dx="0">+gebiedsaanwijzing</tspan></text><g transform="matrix(1 0 0 -1 680 592)"><rect x="0" y="-10" width="39" height="10" stroke="none" fill="#FFFFFF"/></g><text stroke="none" fill="#000000" transform="translate(680 592)"><tspan x="0" y="8" dx="0">«</tspan><tspan x="4" y="8" dx="0">R</tspan><tspan x="8.25" y="8" dx="0">e</tspan><tspan x="12" y="8" dx="0">l</tspan><tspan x="14" y="8" dx="0">a</tspan><tspan x="17.5" y="8" dx="0 0">ti</tspan><tspan x="22.25" y="8" dx="0">e</tspan><tspan x="26" y="8" dx="0">r</tspan><tspan x="28.75" y="8" dx="0">o</tspan><tspan x="32.75" y="8" dx="0">l</tspan><tspan x="34.75" y="8" dx="0">»</tspan></text><g transform="matrix(1 0 0 -1 648 614)"><rect x="0" y="-10" width="13" height="10" stroke="none" fill="#FFFFFF"/></g><text stroke="none" fill="#000000" transform="translate(648 614)"><tspan x="0" y="8" dx="0">0..*</tspan></text><g transform="matrix(1 0 0 -1 1070 184)"><rect x="0" y="-10" width="13" height="10" stroke="none" fill="#FFFFFF"/></g><text stroke="none" fill="#000000" transform="translate(1070 184)"><tspan x="0" y="8" dx="0">0..*</tspan></text><g transform="matrix(1 0 0 -1 993 827)"><rect x="0" y="-10" width="63" height="10" stroke="none" fill="#FFFFFF"/></g><text stroke="none" fill="#000000" transform="translate(993 827)"><tspan x="0" y="8" dx="0">+</tspan><tspan x="4.25" y="8" dx="0">l</tspan><tspan x="6.25" y="8" dx="0">o</tspan><tspan x="10.75" y="8" dx="0">c</tspan><tspan x="14" y="8" dx="0">a</tspan><tspan x="17.75" y="8" dx="0 0">ti</tspan><tspan x="22.5" y="8" dx="0">e</tspan><tspan x="26.5" y="8" dx="0">a</tspan><tspan x="30.25" y="8" dx="0">a</tspan><tspan x="34" y="8" dx="0">n</tspan><tspan x="38.25" y="8" dx="0">d</tspan><tspan x="42.5" y="8" dx="0">u</tspan><tspan x="46.75" y="8" dx="0">i</tspan><tspan x="48.75" y="8" dx="0">d</tspan><tspan x="53" y="8" dx="0">i</tspan><tspan x="55" y="8" dx="0">n</tspan><tspan x="59.25" y="8" dx="0">g</tspan></text><g transform="matrix(1 0 0 -1 1004 837)"><rect x="0" y="-10" width="39" height="10" stroke="none" fill="#FFFFFF"/></g><text stroke="none" fill="#000000" transform="translate(1004 837)"><tspan x="0" y="8" dx="0">«</tspan><tspan x="4" y="8" dx="0">R</tspan><tspan x="8.25" y="8" dx="0">e</tspan><tspan x="12" y="8" dx="0">l</tspan><tspan x="14" y="8" dx="0">a</tspan><tspan x="17.5" y="8" dx="0 0">ti</tspan><tspan x="22.25" y="8" dx="0">e</tspan><tspan x="26" y="8" dx="0">r</tspan><tspan x="28.75" y="8" dx="0">o</tspan><tspan x="32.75" y="8" dx="0">l</tspan><tspan x="34.75" y="8" dx="0">»</tspan></text><g transform="matrix(1 0 0 -1 988 861)"><rect x="0" y="-10" width="13" height="10" stroke="none" fill="#FFFFFF"/></g><text stroke="none" fill="#000000" transform="translate(988 861)"><tspan x="0" y="8" dx="0">1..*</tspan></text><g transform="matrix(1 0 0 -1 651 675)"><rect x="0" y="-10" width="13" height="10" stroke="none" fill="#FFFFFF"/></g><text stroke="none" fill="#000000" transform="translate(651 675)"><tspan x="0" y="8" dx="0">0..*</tspan></text><g transform="matrix(1 0 0 -1 915 742)"><rect x="0" y="-10" width="63" height="10" stroke="none" fill="#FFFFFF"/></g><text stroke="none" fill="#000000" transform="translate(915 742)"><tspan x="0" y="8" dx="0">+</tspan><tspan x="4.25" y="8" dx="0">l</tspan><tspan x="6.25" y="8" dx="0">o</tspan><tspan x="10.75" y="8" dx="0">c</tspan><tspan x="14" y="8" dx="0">a</tspan><tspan x="17.75" y="8" dx="0 0">ti</tspan><tspan x="22.5" y="8" dx="0">e</tspan><tspan x="26.5" y="8" dx="0">a</tspan><tspan x="30.25" y="8" dx="0">a</tspan><tspan x="34" y="8" dx="0">n</tspan><tspan x="38.25" y="8" dx="0">d</tspan><tspan x="42.5" y="8" dx="0">u</tspan><tspan x="46.75" y="8" dx="0">i</tspan><tspan x="48.75" y="8" dx="0">d</tspan><tspan x="53" y="8" dx="0">i</tspan><tspan x="55" y="8" dx="0">n</tspan><tspan x="59.25" y="8" dx="0">g</tspan></text><g transform="matrix(1 0 0 -1 915 752)"><rect x="0" y="-10" width="39" height="10" stroke="none" fill="#FFFFFF"/></g><text stroke="none" fill="#000000" transform="translate(915 752)"><tspan x="0" y="8" dx="0">«</tspan><tspan x="4" y="8" dx="0">R</tspan><tspan x="8.25" y="8" dx="0">e</tspan><tspan x="12" y="8" dx="0">l</tspan><tspan x="14" y="8" dx="0">a</tspan><tspan x="17.5" y="8" dx="0 0">ti</tspan><tspan x="22.25" y="8" dx="0">e</tspan><tspan x="26" y="8" dx="0">r</tspan><tspan x="28.75" y="8" dx="0">o</tspan><tspan x="32.75" y="8" dx="0">l</tspan><tspan x="34.75" y="8" dx="0">»</tspan></text><g transform="matrix(1 0 0 -1 895 774)"><rect x="0" y="-10" width="13" height="10" stroke="none" fill="#FFFFFF"/></g><text stroke="none" fill="#000000" transform="translate(895 774)"><tspan x="0" y="8" dx="0">1..*</tspan></text><g transform="matrix(1 0 0 -1 620 794)"><rect x="0" y="-10" width="13" height="10" stroke="none" fill="#FFFFFF"/></g><text stroke="none" fill="#000000" transform="translate(620 794)"><tspan x="0" y="8" dx="0">0..*</tspan></text><g transform="matrix(1 0 0 -1 723 836)"><rect x="0" y="-10" width="63" height="10" stroke="none" fill="#FFFFFF"/></g><text stroke="none" fill="#000000" transform="translate(723 836)"><tspan x="0" y="8" dx="0">+</tspan><tspan x="4.25" y="8" dx="0">l</tspan><tspan x="6.25" y="8" dx="0">o</tspan><tspan x="10.75" y="8" dx="0">c</tspan><tspan x="14" y="8" dx="0">a</tspan><tspan x="17.75" y="8" dx="0 0">ti</tspan><tspan x="22.5" y="8" dx="0">e</tspan><tspan x="26.5" y="8" dx="0">a</tspan><tspan x="30.25" y="8" dx="0">a</tspan><tspan x="34" y="8" dx="0">n</tspan><tspan x="38.25" y="8" dx="0">d</tspan><tspan x="42.5" y="8" dx="0">u</tspan><tspan x="46.75" y="8" dx="0">i</tspan><tspan x="48.75" y="8" dx="0">d</tspan><tspan x="53" y="8" dx="0">i</tspan><tspan x="55" y="8" dx="0">n</tspan><tspan x="59.25" y="8" dx="0">g</tspan></text><g transform="matrix(1 0 0 -1 747 846)"><rect x="0" y="-10" width="39" height="10" stroke="none" fill="#FFFFFF"/></g><text stroke="none" fill="#000000" transform="translate(747 846)"><tspan x="0" y="8" dx="0">«</tspan><tspan x="4" y="8" dx="0">R</tspan><tspan x="8.25" y="8" dx="0">e</tspan><tspan x="12" y="8" dx="0">l</tspan><tspan x="14" y="8" dx="0">a</tspan><tspan x="17.5" y="8" dx="0 0">ti</tspan><tspan x="22.25" y="8" dx="0">e</tspan><tspan x="26" y="8" dx="0">r</tspan><tspan x="28.75" y="8" dx="0">o</tspan><tspan x="32.75" y="8" dx="0">l</tspan><tspan x="34.75" y="8" dx="0">»</tspan></text><g transform="matrix(1 0 0 -1 741 858)"><rect x="0" y="-10" width="13" height="10" stroke="none" fill="#FFFFFF"/></g><text stroke="none" fill="#000000" transform="translate(741 858)"><tspan x="0" y="8" dx="0">1..*</tspan></text><g transform="matrix(1 0 0 -1 1288 424)"><rect x="0" y="-10" width="13" height="10" stroke="none" fill="#FFFFFF"/></g><text stroke="none" fill="#000000" transform="translate(1288 424)"><tspan x="0" y="8" dx="0">1..*</tspan></text><g transform="matrix(1 0 0 -1 1318 598)"><rect x="0" y="-10" width="103" height="10" stroke="none" fill="#FFFFFF"/></g><text stroke="none" fill="#000000" transform="translate(1318 598)"><tspan x="0" y="8" dx="0">+omgevingswaardeaanduiding</tspan></text><g transform="matrix(1 0 0 -1 1318 608)"><rect x="0" y="-10" width="39" height="10" stroke="none" fill="#FFFFFF"/></g><text stroke="none" fill="#000000" transform="translate(1318 608)"><tspan x="0" y="8" dx="0">«</tspan><tspan x="4" y="8" dx="0">R</tspan><tspan x="8.25" y="8" dx="0">e</tspan><tspan x="12" y="8" dx="0">l</tspan><tspan x="14" y="8" dx="0">a</tspan><tspan x="17.5" y="8" dx="0 0">ti</tspan><tspan x="22.25" y="8" dx="0">e</tspan><tspan x="26" y="8" dx="0">r</tspan><tspan x="28.75" y="8" dx="0">o</tspan><tspan x="32.75" y="8" dx="0">l</tspan><tspan x="34.75" y="8" dx="0">»</tspan></text><g transform="matrix(1 0 0 -1 1288 624)"><rect x="0" y="-10" width="13" height="10" stroke="none" fill="#FFFFFF"/></g><text stroke="none" fill="#000000" transform="translate(1288 624)"><tspan x="0" y="8" dx="0">0..*</tspan></text><g transform="matrix(1 0 0 -1 414 419)"><rect x="0" y="-10" width="13" height="10" stroke="none" fill="#FFFFFF"/></g><text stroke="none" fill="#000000" transform="translate(414 419)"><tspan x="0" y="8" dx="0">1..*</tspan></text><g transform="matrix(1 0 0 -1 287 818)"><rect x="0" y="-10" width="69" height="10" stroke="none" fill="#FFFFFF"/></g><text stroke="none" fill="#000000" transform="translate(287 818)"><tspan x="0" y="8" dx="0">+</tspan><tspan x="3.75" y="8" dx="0">a</tspan><tspan x="7.5" y="8" dx="0">c</tspan><tspan x="10.75" y="8" dx="0 0">ti</tspan><tspan x="15.5" y="8" dx="0">v</tspan><tspan x="19" y="8" dx="0">i</tspan><tspan x="21" y="8" dx="0">t</tspan><tspan x="23.75" y="8" dx="0">e</tspan><tspan x="27.75" y="8" dx="0">i</tspan><tspan x="29.75" y="8" dx="0">t</tspan><tspan x="32.5" y="8" dx="0">a</tspan><tspan x="36.25" y="8" dx="0">a</tspan><tspan x="40" y="8" dx="0">n</tspan><tspan x="44.25" y="8" dx="0">d</tspan><tspan x="48.5" y="8" dx="0">u</tspan><tspan x="52.75" y="8" dx="0">i</tspan><tspan x="54.75" y="8" dx="0">d</tspan><tspan x="59" y="8" dx="0">i</tspan><tspan x="61" y="8" dx="0">n</tspan><tspan x="65.25" y="8" dx="0">g</tspan></text><g transform="matrix(1 0 0 -1 287 828)"><rect x="0" y="-10" width="39" height="10" stroke="none" fill="#FFFFFF"/></g><text stroke="none" fill="#000000" transform="translate(287 828)"><tspan x="0" y="8" dx="0">«</tspan><tspan x="4" y="8" dx="0">R</tspan><tspan x="8.25" y="8" dx="0">e</tspan><tspan x="12" y="8" dx="0">l</tspan><tspan x="14" y="8" dx="0">a</tspan><tspan x="17.5" y="8" dx="0 0">ti</tspan><tspan x="22.25" y="8" dx="0">e</tspan><tspan x="26" y="8" dx="0">r</tspan><tspan x="28.75" y="8" dx="0">o</tspan><tspan x="32.75" y="8" dx="0">l</tspan><tspan x="34.75" y="8" dx="0">»</tspan></text><g transform="matrix(1 0 0 -1 411 818)"><rect x="0" y="-10" width="13" height="10" stroke="none" fill="#FFFFFF"/></g><text stroke="none" fill="#000000" transform="translate(411 818)"><tspan x="0" y="8" dx="0">0..*</tspan></text></g></g></g></g></svg>