<svg width="314.015" height="159.495" viewBox="49.5768 187.798 235.511 119.621" xmlns="http://www.w3.org/2000/svg" xmlns:xlink="http://www.w3.org/1999/xlink" overflow="hidden"><g transform="matrix(1 0 0 -1 0 841)"><g stroke="#000000" stroke-linecap="round" stroke-linejoin="round" stroke-miterlimit="3" fill="none" fill-rule="evenodd" font-weight="400" baseline-shift="0"><g transform="matrix(0.6 0 0 0.6 0 841.65)"><g font-family="CalibriUnicode" font-size="8" transform="scale(1.19952 -1.19932)"><path d="M280 383C280 378 280 378 285 378L380 378C385 378 385 378 385 383L385 412C385 417 385 417 380 417L285 417C280 417 280 417 280 412L280 383" stroke="none" fill="#DFDFDF"/><path d="M277 380C277 375 277 375 282 375L377 375C382 375 382 375 382 380L382 409C382 414 382 414 377 414L282 414C277 414 277 414 277 409L277 380" stroke="none" fill="#FBF9C6"/><path d="M277 380C277 375 277 375 282 375L377 375C382 375 382 375 382 380L382 409C382 414 382 414 377 414L282 414C277 414 277 414 277 409L277 380M277 380C277 375 277 375 282 375L377 375C382 375 382 375 382 380L382 409C382 414 382 414 377 414L282 414C277 414 277 414 277 409L277 380"/><text stroke="none" fill="#000000" transform="translate(312 381)"><tspan x="0" y="8" dx="0">«CodeList»</tspan></text><text stroke="none" fill="#000000" font-weight="700" transform="translate(287 391)"><tspan x="0" y="8" dx="0">Energievoorzieninggroep</tspan></text><path d="M244 361C244 356 244 356 249 356L344 356C349 356 349 356 349 361L349 390C349 395 349 395 344 395L249 395C244 395 244 395 244 390L244 361" stroke="none" fill="#DFDFDF"/><path d="M241 358C241 353 241 353 246 353L341 353C346 353 346 353 346 358L346 387C346 392 346 392 341 392L246 392C241 392 241 392 241 387L241 358" stroke="none" fill="#FBF9C6"/><path d="M241 358C241 353 241 353 246 353L341 353C346 353 346 353 346 358L346 387C346 392 346 392 341 392L246 392C241 392 241 392 241 387L241 358M241 358C241 353 241 353 246 353L341 353C346 353 346 353 346 358L346 387C346 392 346 392 341 392L246 392C241 392 241 392 241 387L241 358"/><text stroke="none" fill="#000000" transform="translate(276 359)"><tspan x="0" y="8" dx="0">«CodeList»</tspan></text><text stroke="none" fill="#000000" font-weight="700" transform="translate(255 369)"><tspan x="0" y="8" dx="0">Externeveiligheidgroep</tspan></text><path d="M212 343C212 338 212 338 217 338L312 338C317 338 317 338 317 343L317 372C317 377 317 377 312 377L217 377C212 377 212 377 212 372L212 343" stroke="none" fill="#DFDFDF"/><path d="M209 340C209 335 209 335 214 335L309 335C314 335 314 335 314 340L314 369C314 374 314 374 309 374L214 374C209 374 209 374 209 369L209 340" stroke="none" fill="#FBF9C6"/><path d="M209 340C209 335 209 335 214 335L309 335C314 335 314 335 314 340L314 369C314 374 314 374 309 374L214 374C209 374 209 374 209 369L209 340M209 340C209 335 209 335 214 335L309 335C314 335 314 335 314 340L314 369C314 374 314 374 309 374L214 374C209 374 209 374 209 369L209 340"/><text stroke="none" fill="#000000" transform="translate(244 341)"><tspan x="0" y="8" dx="0">«CodeList»</tspan></text><text stroke="none" fill="#000000" font-weight="700" transform="translate(238 351)"><tspan x="0" y="8" dx="0">Erfgoedgroep</tspan></text><path d="M165 321C165 316 165 316 170 316L265 316C270 316 270 316 270 321L270 350C270 355 270 355 265 355L170 355C165 355 165 355 165 350L165 321" stroke="none" fill="#DFDFDF"/><path d="M162 318C162 313 162 313 167 313L262 313C267 313 267 313 267 318L267 347C267 352 267 352 262 352L167 352C162 352 162 352 162 347L162 318" stroke="none" fill="#FBF9C6"/><path d="M162 318C162 313 162 313 167 313L262 313C267 313 267 313 267 318L267 347C267 352 267 352 262 352L167 352C162 352 162 352 162 347L162 318M162 318C162 313 162 313 167 313L262 313C267 313 267 313 267 318L267 347C267 352 267 352 262 352L167 352C162 352 162 352 162 347L162 318"/><text stroke="none" fill="#000000" transform="translate(197 319)"><tspan x="0" y="8" dx="0">«CodeList»</tspan></text><text stroke="none" fill="#000000" font-weight="700" transform="translate(190 329)"><tspan x="0" y="8" dx="0">Defensiegroep</tspan></text><path d="M115 303C115 298 115 298 120 298L215 298C220 298 220 298 220 303L220 332C220 337 220 337 215 337L120 337C115 337 115 337 115 332L115 303" stroke="none" fill="#DFDFDF"/><path d="M112 300C112 295 112 295 117 295L212 295C217 295 217 295 217 300L217 329C217 334 217 334 212 334L117 334C112 334 112 334 112 329L112 300" stroke="none" fill="#FBF9C6"/><path d="M112 300C112 295 112 295 117 295L212 295C217 295 217 295 217 300L217 329C217 334 217 334 212 334L117 334C112 334 112 334 112 329L112 300M112 300C112 295 112 295 117 295L212 295C217 295 217 295 217 300L217 329C217 334 217 334 212 334L117 334C112 334 112 334 112 329L112 300"/><text stroke="none" fill="#000000" transform="translate(147 301)"><tspan x="0" y="8" dx="0">«CodeList»</tspan></text><text stroke="none" fill="#000000" font-weight="700" transform="translate(143 311)"><tspan x="0" y="8" dx="0">Bodemgroep</tspan></text><path d="M83 281C83 276 83 276 88 276L183 276C188 276 188 276 188 281L188 310C188 315 188 315 183 315L88 315C83 315 83 315 83 310L83 281" stroke="none" fill="#DFDFDF"/><path d="M80 278C80 273 80 273 85 273L180 273C185 273 185 273 185 278L185 307C185 312 185 312 180 312L85 312C80 312 80 312 80 307L80 278" stroke="none" fill="#FBF9C6"/><path d="M80 278C80 273 80 273 85 273L180 273C185 273 185 273 185 278L185 307C185 312 185 312 180 312L85 312C80 312 80 312 80 307L80 278M80 278C80 273 80 273 85 273L180 273C185 273 185 273 185 278L185 307C185 312 185 312 180 312L85 312C80 312 80 312 80 307L80 278"/><text stroke="none" fill="#000000" transform="translate(115 279)"><tspan x="0" y="8" dx="0">«CodeList»</tspan></text><text stroke="none" fill="#000000" font-weight="700" transform="translate(90 289)"><tspan x="0" y="8" dx="0">Beperkingengebiedgroep</tspan></text></g></g></g></g></svg>