<svg width="630.747" height="338.034" viewBox="66.8572 149.431 473.061 253.526" xmlns="http://www.w3.org/2000/svg" xmlns:xlink="http://www.w3.org/1999/xlink" overflow="hidden"><g transform="matrix(1 0 0 -1 0 768)"><g stroke="#000000" stroke-linecap="round" stroke-linejoin="round" stroke-miterlimit="3" fill="none" fill-rule="evenodd" font-weight="400" baseline-shift="0"><g transform="matrix(0.75 0 0 0.75 0 768.2)"><g font-family="CalibriUnicode" font-size="13" transform="scale(0.959707 -0.9597)"><path d="M107 227C107 222 107 222 112 222L489 222C494 222 494 222 494 227L494 358C494 363 494 363 489 363L112 363C107 363 107 363 107 358L107 227" stroke="none" fill="#DFDFDF"/><path d="M104 224C104 219 104 219 109 219L486 219C491 219 491 219 491 224L491 355C491 360 491 360 486 360L109 360C104 360 104 360 104 355L104 224" stroke="none" stroke-width="2" fill="#00CCFF"/><path d="M104 224C104 219 104 219 109 219L486 219C491 219 491 219 491 224L491 355C491 360 491 360 486 360L109 360C104 360 104 360 104 355L104 224M104 224C104 219 104 219 109 219L486 219C491 219 491 219 491 224L491 355C491 360 491 360 486 360L109 360C104 360 104 360 104 355L104 224" stroke-width="2"/><text stroke="none" fill="#000000" transform="translate(262 225)"><tspan x="0" y="13" dx="0">«</tspan><tspan x="6" y="13" dx="0">O</tspan><tspan x="15" y="13" dx="0">b</tspan><tspan x="22" y="13" dx="0">j</tspan><tspan x="25" y="13" dx="0">e</tspan><tspan x="32" y="13" dx="0">c</tspan><tspan x="38" y="13" dx="0 0">tt</tspan><tspan x="46" y="13" dx="0">y</tspan><tspan x="51" y="13" dx="0">p</tspan><tspan x="58" y="13" dx="0">e</tspan><tspan x="66" y="13" dx="0">»</tspan></text><text stroke="none" fill="#000000" font-weight="700" transform="translate(270 240)"><tspan x="0" y="13" dx="0">Regeltekst</tspan></text><path d="M104 260 491 260" stroke-width="2"/><text stroke="none" fill="#000000" transform="translate(117 268)"><tspan x="0" y="13" dx="0">«</tspan><tspan x="6" y="13" dx="0">A</tspan><tspan x="14" y="13" dx="0 0">tt</tspan><tspan x="22" y="13" dx="0">r</tspan><tspan x="26" y="13" dx="0">i</tspan><tspan x="30" y="13" dx="0">b</tspan><tspan x="38" y="13" dx="0">u</tspan><tspan x="45" y="13" dx="0">u</tspan><tspan x="52" y="13" dx="0">t</tspan><tspan x="56" y="13" dx="0">s</tspan><tspan x="63" y="13" dx="0">o</tspan><tspan x="70" y="13" dx="0">o</tspan><tspan x="77" y="13" dx="0">r</tspan><tspan x="81" y="13" dx="0">t</tspan><tspan x="85" y="13" dx="0">»</tspan></text><text stroke="none" fill="#2F4F4F" transform="translate(109 283)"><tspan x="0" y="13" dx="0">+</tspan></text><text stroke="none" fill="#2F4F4F" transform="translate(130 283)"><tspan x="0" y="13" dx="0">i</tspan><tspan x="4" y="13" dx="0">d</tspan><tspan x="11" y="13" dx="0">e</tspan><tspan x="19" y="13" dx="0">n</tspan><tspan x="26" y="13" dx="0 0">ti</tspan><tspan x="34" y="13" dx="0 0">fi</tspan><tspan x="43" y="13" dx="0">c</tspan><tspan x="48" y="13" dx="0">a</tspan><tspan x="55" y="13" dx="0 0">ti</tspan><tspan x="64" y="13" dx="0">e</tspan><tspan x="71" y="13" dx="0">:</tspan><tspan x="74" y="13" dx="0"> </tspan><tspan x="77" y="13" dx="0">N</tspan><tspan x="85" y="13" dx="0">E</tspan><tspan x="92" y="13" dx="0">N</tspan><tspan x="100" y="13" dx="0">3</tspan><tspan x="106" y="13" dx="0">6</tspan><tspan x="113" y="13" dx="0">1</tspan><tspan x="119" y="13" dx="0">0</tspan><tspan x="125" y="13" dx="0">I</tspan><tspan x="129" y="13" dx="0">D</tspan><tspan x="138" y="13" dx="0"> </tspan><tspan x="141" y="13" dx="0">{</tspan><tspan x="145" y="13" dx="0">i</tspan><tspan x="149" y="13" dx="0">d</tspan><tspan x="156" y="13" dx="0">}</tspan></text><path d="M104 302 491 302" stroke-width="2"/><text stroke="none" fill="#000000" font-style="italic" transform="translate(269 306)"><tspan x="0" y="13" dx="0">constraints</tspan></text><text stroke="none" fill="#000000" transform="translate(109 321)"><tspan x="0" y="13" dx="0">{één type Juridische regel per Regeltekst}</tspan></text><text stroke="none" fill="#000000" transform="translate(109 336)"><tspan x="0" y="13" dx="0">{</tspan><tspan x="4" y="13" dx="0">i</tspan><tspan x="8" y="13" dx="0">n</tspan><tspan x="15" y="13" dx="0">d</tspan><tspan x="22" y="13" dx="0">i</tspan><tspan x="26" y="13" dx="0">e</tspan><tspan x="33" y="13" dx="0">n</tspan><tspan x="40" y="13" dx="0"> </tspan><tspan x="43" y="13" dx="0">A</tspan><tspan x="49" y="13" dx="0">r</tspan><tspan x="53" y="13" dx="0 0">ti</tspan><tspan x="61" y="13" dx="0">k</tspan><tspan x="67" y="13" dx="0">e</tspan><tspan x="74" y="13" dx="0">l</tspan><tspan x="78" y="13" dx="0"> </tspan><tspan x="81" y="13" dx="0">i</tspan><tspan x="85" y="13" dx="0">s</tspan><tspan x="90" y="13" dx="0"> </tspan><tspan x="93" y="13" dx="0">o</tspan><tspan x="100" y="13" dx="0">n</tspan><tspan x="107" y="13" dx="0">d</tspan><tspan x="114" y="13" dx="0">e</tspan><tspan x="121" y="13" dx="0">r</tspan><tspan x="125" y="13" dx="0">v</tspan><tspan x="130" y="13" dx="0">e</tspan><tspan x="137" y="13" dx="0">r</tspan><tspan x="141" y="13" dx="0">d</tspan><tspan x="147" y="13" dx="0">e</tspan><tspan x="154" y="13" dx="0">e</tspan><tspan x="161" y="13" dx="0">l</tspan><tspan x="165" y="13" dx="0">d</tspan><tspan x="172" y="13" dx="0"> </tspan><tspan x="175" y="13" dx="0">i</tspan><tspan x="179" y="13" dx="0">n</tspan><tspan x="186" y="13" dx="0"> </tspan><tspan x="188" y="13" dx="0">L</tspan><tspan x="193" y="13" dx="0">e</tspan><tspan x="200" y="13" dx="0">d</tspan><tspan x="207" y="13" dx="0">e</tspan><tspan x="214" y="13" dx="0">n</tspan><tspan x="221" y="13" dx="0">,</tspan><tspan x="224" y="13" dx="0"> </tspan><tspan x="227" y="13" dx="0">a</tspan><tspan x="233" y="13" dx="0">n</tspan><tspan x="240" y="13" dx="0">n</tspan><tspan x="247" y="13" dx="0">o</tspan><tspan x="254" y="13" dx="0">t</tspan><tspan x="258" y="13" dx="0">a</tspan><tspan x="265" y="13" dx="0 0">ti</tspan><tspan x="273" y="13" dx="0">e</tspan><tspan x="280" y="13" dx="0">s</tspan><tspan x="285" y="13" dx="0"> </tspan><tspan x="288" y="13" dx="0">a</tspan><tspan x="295" y="13" dx="0">l</tspan><tspan x="299" y="13" dx="0">l</tspan><tspan x="303" y="13" dx="0">e</tspan><tspan x="310" y="13" dx="0">e</tspan><tspan x="317" y="13" dx="0">n</tspan><tspan x="324" y="13" dx="0"> </tspan><tspan x="326" y="13" dx="0">o</tspan><tspan x="333" y="13" dx="0">p</tspan><tspan x="340" y="13" dx="0"> </tspan><tspan x="343" y="13" dx="0">L</tspan><tspan x="348" y="13" dx="0">e</tspan><tspan x="355" y="13" dx="0">d</tspan><tspan x="362" y="13" dx="0">e</tspan><tspan x="369" y="13" dx="0">n</tspan><tspan x="375" y="13" dx="0">}</tspan></text><path d="M172 438C172 433 172 433 177 433L377 433C382 433 382 433 382 438L382 544C382 549 382 549 377 549L177 549C172 549 172 549 172 544L172 438" stroke="none" fill="#DFDFDF"/><path d="M169 435C169 430 169 430 174 430L374 430C379 430 379 430 379 435L379 541C379 546 379 546 374 546L174 546C169 546 169 546 169 541L169 435" stroke="none" fill="#FFE4E1"/><path d="M169 435C169 430 169 430 174 430L374 430C379 430 379 430 379 435L379 541C379 546 379 546 374 546L174 546C169 546 169 546 169 541L169 435M169 435C169 430 169 430 174 430L374 430C379 430 379 430 379 435L379 541C379 546 379 546 374 546L174 546C169 546 169 546 169 541L169 435"/><text stroke="none" fill="#000000" transform="translate(238 436)"><tspan x="0" y="13" dx="0">«</tspan><tspan x="6" y="13" dx="0">O</tspan><tspan x="15" y="13" dx="0">b</tspan><tspan x="22" y="13" dx="0">j</tspan><tspan x="25" y="13" dx="0">e</tspan><tspan x="32" y="13" dx="0">c</tspan><tspan x="38" y="13" dx="0 0">tt</tspan><tspan x="46" y="13" dx="0">y</tspan><tspan x="51" y="13" dx="0">p</tspan><tspan x="58" y="13" dx="0">e</tspan><tspan x="66" y="13" dx="0">»</tspan></text><text stroke="none" fill="#000000" font-style="italic" font-weight="700" transform="translate(256 451)"><tspan x="0" y="13" dx="0">L</tspan><tspan x="5" y="13" dx="0">o</tspan><tspan x="11" y="13" dx="0">c</tspan><tspan x="17" y="13" dx="0">a</tspan><tspan x="23" y="13" dx="0 0">ti</tspan><tspan x="30" y="13" dx="0">e</tspan></text><path d="M169 471 379 471"/><text stroke="none" fill="#000000" transform="translate(182 479)"><tspan x="0" y="13" dx="0">«</tspan><tspan x="6" y="13" dx="0">A</tspan><tspan x="14" y="13" dx="0 0">tt</tspan><tspan x="22" y="13" dx="0">r</tspan><tspan x="26" y="13" dx="0">i</tspan><tspan x="30" y="13" dx="0">b</tspan><tspan x="38" y="13" dx="0">u</tspan><tspan x="45" y="13" dx="0">u</tspan><tspan x="52" y="13" dx="0">t</tspan><tspan x="56" y="13" dx="0">s</tspan><tspan x="63" y="13" dx="0">o</tspan><tspan x="70" y="13" dx="0">o</tspan><tspan x="77" y="13" dx="0">r</tspan><tspan x="81" y="13" dx="0">t</tspan><tspan x="85" y="13" dx="0">»</tspan></text><text stroke="none" fill="#2F4F4F" transform="translate(174 494)"><tspan x="0" y="13" dx="0">+</tspan></text><text stroke="none" fill="#2F4F4F" transform="translate(195 494)"><tspan x="0" y="13" dx="0">i</tspan><tspan x="4" y="13" dx="0">d</tspan><tspan x="11" y="13" dx="0">e</tspan><tspan x="19" y="13" dx="0">n</tspan><tspan x="26" y="13" dx="0 0">ti</tspan><tspan x="34" y="13" dx="0 0">fi</tspan><tspan x="43" y="13" dx="0">c</tspan><tspan x="48" y="13" dx="0">a</tspan><tspan x="55" y="13" dx="0 0">ti</tspan><tspan x="64" y="13" dx="0">e</tspan><tspan x="71" y="13" dx="0">:</tspan><tspan x="74" y="13" dx="0"> </tspan><tspan x="77" y="13" dx="0">N</tspan><tspan x="85" y="13" dx="0">E</tspan><tspan x="92" y="13" dx="0">N</tspan><tspan x="100" y="13" dx="0">3</tspan><tspan x="106" y="13" dx="0">6</tspan><tspan x="113" y="13" dx="0">1</tspan><tspan x="119" y="13" dx="0">0</tspan><tspan x="125" y="13" dx="0">I</tspan><tspan x="129" y="13" dx="0">D</tspan><tspan x="138" y="13" dx="0">_</tspan><tspan x="144" y="13" dx="0">L</tspan><tspan x="149" y="13" dx="0">o</tspan><tspan x="156" y="13" dx="0">c</tspan><tspan x="162" y="13" dx="0">a</tspan><tspan x="169" y="13" dx="0 0">ti</tspan><tspan x="177" y="13" dx="0">e</tspan></text><text stroke="none" fill="#2F4F4F" transform="translate(174 509)"><tspan x="0" y="13" dx="0">+</tspan></text><text stroke="none" fill="#2F4F4F" transform="translate(195 509)"><tspan x="0" y="13" dx="0">noemer: CharacterString [0..1]</tspan></text><path d="M532 407C532 402 532 402 537 402L734 402C739 402 739 402 739 407L739 526C739 531 739 531 734 531L537 531C532 531 532 531 532 526L532 407" stroke="none" fill="#DFDFDF"/><path d="M529 404C529 399 529 399 534 399L731 399C736 399 736 399 736 404L736 523C736 528 736 528 731 528L534 528C529 528 529 528 529 523L529 404" stroke="none" stroke-width="2" fill="#CCFFFF"/><path d="M529 404C529 399 529 399 534 399L731 399C736 399 736 399 736 404L736 523C736 528 736 528 731 528L534 528C529 528 529 528 529 523L529 404M529 404C529 399 529 399 534 399L731 399C736 399 736 399 736 404L736 523C736 528 736 528 731 528L534 528C529 528 529 528 529 523L529 404" stroke-width="2"/><text stroke="none" fill="#000000" font-size="14" transform="translate(595 405)"><tspan x="0" y="14" dx="0">«</tspan><tspan x="7" y="14" dx="0">O</tspan><tspan x="17" y="14" dx="0">b</tspan><tspan x="24" y="14" dx="0">j</tspan><tspan x="28" y="14" dx="0">e</tspan><tspan x="34" y="14" dx="0">c</tspan><tspan x="41" y="14" dx="0 0">tt</tspan><tspan x="49" y="14" dx="0">y</tspan><tspan x="55" y="14" dx="0">p</tspan><tspan x="63" y="14" dx="0">e</tspan><tspan x="69" y="14" dx="0">»</tspan></text><text stroke="none" fill="#000000" font-style="italic" font-weight="700" font-size="14" transform="translate(590 422)"><tspan x="0" y="14" dx="0">Juridische regel</tspan></text><path d="M529 444 736 444" stroke-width="2"/><text stroke="none" fill="#000000" font-size="14" transform="translate(543 452)"><tspan x="0" y="14" dx="0">«</tspan><tspan x="7" y="14" dx="0">A</tspan><tspan x="15" y="14" dx="0 0">tt</tspan><tspan x="23" y="14" dx="0">r</tspan><tspan x="28" y="14" dx="0">i</tspan><tspan x="32" y="14" dx="0">b</tspan><tspan x="40" y="14" dx="0">u</tspan><tspan x="47" y="14" dx="0">u</tspan><tspan x="54" y="14" dx="0">t</tspan><tspan x="58" y="14" dx="0">s</tspan><tspan x="65" y="14" dx="0">o</tspan><tspan x="72" y="14" dx="0">o</tspan><tspan x="79" y="14" dx="0">r</tspan><tspan x="84" y="14" dx="0">t</tspan><tspan x="89" y="14" dx="0">»</tspan></text><text stroke="none" fill="#2F4F4F" font-size="14" transform="translate(534 469)"><tspan x="0" y="14" dx="0">+</tspan></text><text stroke="none" fill="#2F4F4F" font-size="14" transform="translate(558 469)"><tspan x="0" y="14" dx="0">i</tspan><tspan x="4" y="14" dx="0">d</tspan><tspan x="11" y="14" dx="0">e</tspan><tspan x="18" y="14" dx="0">n</tspan><tspan x="25" y="14" dx="0 0">ti</tspan><tspan x="33" y="14" dx="0 0">fi</tspan><tspan x="42" y="14" dx="0">c</tspan><tspan x="48" y="14" dx="0">a</tspan><tspan x="55" y="14" dx="0 0">ti</tspan><tspan x="64" y="14" dx="0">e</tspan><tspan x="70" y="14" dx="0">:</tspan><tspan x="73" y="14" dx="0"> </tspan><tspan x="76" y="14" dx="0">N</tspan><tspan x="84" y="14" dx="0">E</tspan><tspan x="91" y="14" dx="0">N</tspan><tspan x="99" y="14" dx="0">3</tspan><tspan x="106" y="14" dx="0">6</tspan><tspan x="114" y="14" dx="0">1</tspan><tspan x="121" y="14" dx="0">0</tspan><tspan x="128" y="14" dx="0">I</tspan><tspan x="132" y="14" dx="0">D</tspan><tspan x="141" y="14" dx="0"> </tspan><tspan x="144" y="14" dx="0">{</tspan><tspan x="148" y="14" dx="0">i</tspan><tspan x="152" y="14" dx="0">d</tspan><tspan x="159" y="14" dx="0">}</tspan></text><text stroke="none" fill="#2F4F4F" font-size="14" transform="translate(534 486)"><tspan x="0" y="14" dx="0">+</tspan></text><text stroke="none" fill="#2F4F4F" font-size="14" transform="translate(558 486)"><tspan x="0" y="14" dx="0">i</tspan><tspan x="4" y="14" dx="0">d</tspan><tspan x="11" y="14" dx="0">e</tspan><tspan x="18" y="14" dx="0">a</tspan><tspan x="25" y="14" dx="0">l</tspan><tspan x="29" y="14" dx="0">i</tspan><tspan x="33" y="14" dx="0">s</tspan><tspan x="40" y="14" dx="0">a</tspan><tspan x="47" y="14" dx="0 0">ti</tspan><tspan x="55" y="14" dx="0">e</tspan><tspan x="61" y="14" dx="0">:</tspan><tspan x="65" y="14" dx="0"> </tspan><tspan x="68" y="14" dx="0">I</tspan><tspan x="72" y="14" dx="0">d</tspan><tspan x="79" y="14" dx="0">e</tspan><tspan x="85" y="14" dx="0">a</tspan><tspan x="93" y="14" dx="0">l</tspan><tspan x="97" y="14" dx="0">i</tspan><tspan x="101" y="14" dx="0">s</tspan><tspan x="107" y="14" dx="0">a</tspan><tspan x="115" y="14" dx="0 0">ti</tspan><tspan x="123" y="14" dx="0">e</tspan></text><text stroke="none" fill="#2F4F4F" font-size="14" transform="translate(534 503)"><tspan x="0" y="14" dx="0">+</tspan></text><text stroke="none" fill="#2F4F4F" font-size="14" transform="translate(558 503)"><tspan x="0" y="14" dx="0">thema: Thema [0..*]</tspan></text><path d="M528 490 380 490M380 490 395 484M380 490 395 496" stroke-width="2"/><path d="M613 399 613 304M613 304 492 304M492 304 507 298M492 304 507 310" stroke-width="2"/><path d="M492 263 525 263M525 263 525 240M525 240 492 240M492 240 507 234M492 240 507 246" stroke-width="2"/><path d="M273 430 273 368" stroke-dasharray="7 4"/><path d="M273 364 272 362"/><path d="M273 430 268 415M273 430 278 415"/><g transform="matrix(1 0 0 -1 626 380)"><rect x="0" y="-13" width="17" height="13" stroke="none" fill="#FFFFFF"/></g><text stroke="none" fill="#000000" font-size="10" transform="translate(626 380)"><tspan x="0" y="9" dx="0">1..*</tspan></text><g transform="matrix(1 0 0 -1 508 316)"><rect x="0" y="-13" width="53" height="13" stroke="none" fill="#FFFFFF"/></g><text stroke="none" fill="#000000" font-size="10" transform="translate(508 316)"><tspan x="0" y="9" dx="0">+</tspan><tspan x="5.33333" y="9" dx="0">a</tspan><tspan x="10.3333" y="9" dx="0">r</tspan><tspan x="13.6667" y="9" dx="0 0">ti</tspan><tspan x="19.3333" y="9" dx="0">k</tspan><tspan x="24" y="9" dx="0">e</tspan><tspan x="29" y="9" dx="0">l</tspan><tspan x="31.3333" y="9" dx="0">O</tspan><tspan x="38" y="9" dx="0">f</tspan><tspan x="41" y="9" dx="0">L</tspan><tspan x="45.3333" y="9" dx="0">i</tspan><tspan x="47.6667" y="9" dx="0">d</tspan></text><g transform="matrix(1 0 0 -1 508 329)"><rect x="0" y="-13" width="49" height="13" stroke="none" fill="#FFFFFF"/></g><text stroke="none" fill="#000000" font-size="10" transform="translate(508 329)"><tspan x="0" y="9" dx="0">«</tspan><tspan x="5" y="9" dx="0">R</tspan><tspan x="10.3333" y="9" dx="0">e</tspan><tspan x="15" y="9" dx="0">l</tspan><tspan x="17.3333" y="9" dx="0">a</tspan><tspan x="22" y="9" dx="0 0">ti</tspan><tspan x="27.6667" y="9" dx="0">e</tspan><tspan x="32.6667" y="9" dx="0">r</tspan><tspan x="36" y="9" dx="0">o</tspan><tspan x="41.3333" y="9" dx="0">l</tspan><tspan x="43.6667" y="9" dx="0">»</tspan></text><g transform="matrix(1 0 0 -1 543 238)"><rect x="0" y="-13" width="102" height="13" stroke="none" fill="#FFFFFF"/></g><text stroke="none" fill="#000000" font-size="10" transform="translate(543 238)"><tspan x="0" y="9" dx="0">+gerelateerdeRegeltekst</tspan></text><g transform="matrix(1 0 0 -1 543 251)"><rect x="0" y="-13" width="68" height="13" stroke="none" fill="#FFFFFF"/></g><text stroke="none" fill="#000000" font-size="10" transform="translate(543 251)"><tspan x="0" y="9" dx="0">«</tspan><tspan x="5.66667" y="9" dx="0">R</tspan><tspan x="11.3333" y="9" dx="0">e</tspan><tspan x="16.3333" y="9" dx="0">l</tspan><tspan x="18.6667" y="9" dx="0">a</tspan><tspan x="23.6667" y="9" dx="0 0">ti</tspan><tspan x="29.3333" y="9" dx="0">e</tspan><tspan x="34.3333" y="9" dx="0">r</tspan><tspan x="37.6667" y="9" dx="0">o</tspan><tspan x="43" y="9" dx="0">l</tspan><tspan x="45.3333" y="9" dx="0">»</tspan><tspan x="50.6667" y="9" dx="0"> </tspan><tspan x="53" y="9" dx="0">0</tspan><tspan x="58.3333" y="9" dx="0">.</tspan><tspan x="60.6667" y="9" dx="0">.</tspan><tspan x="63" y="9" dx="0">*</tspan></text><g transform="matrix(1 0 0 -1 280 367)"><rect x="0" y="-13" width="17" height="13" stroke="none" fill="#FFFFFF"/></g><text stroke="none" fill="#000000" font-size="10" transform="translate(280 367)"><tspan x="0" y="9" dx="0">1..*</tspan></text><g transform="matrix(1 0 0 -1 291 392)"><rect x="0" y="-13" width="71" height="13" stroke="none" fill="#FFFFFF"/></g><text stroke="none" fill="#000000" font-size="10" transform="translate(291 392)"><tspan x="0" y="9" dx="0">+werkingsgebied</tspan></text><g transform="matrix(1 0 0 -1 281 412)"><rect x="0" y="-13" width="17" height="13" stroke="none" fill="#FFFFFF"/></g><text stroke="none" fill="#000000" font-size="10" transform="translate(281 412)"><tspan x="0" y="9" dx="0">1..*</tspan></text><g transform="matrix(1 0 0 -1 509 495)"><rect x="0" y="-13" width="17" height="13" stroke="none" fill="#FFFFFF"/></g><text stroke="none" fill="#000000" font-size="10" transform="translate(509 495)"><tspan x="0" y="9" dx="0">0..*</tspan></text><g transform="matrix(1 0 0 -1 396 454)"><rect x="0" y="-13" width="78" height="13" stroke="none" fill="#FFFFFF"/></g><text stroke="none" fill="#000000" font-size="10" transform="translate(396 454)"><tspan x="0" y="9" dx="0">+</tspan><tspan x="4.66667" y="9" dx="0">l</tspan><tspan x="7" y="9" dx="0">o</tspan><tspan x="12" y="9" dx="0">c</tspan><tspan x="16.3333" y="9" dx="0">a</tspan><tspan x="21" y="9" dx="0 0">ti</tspan><tspan x="26.6667" y="9" dx="0">e</tspan><tspan x="31.6667" y="9" dx="0">a</tspan><tspan x="36.6667" y="9" dx="0">a</tspan><tspan x="41.6667" y="9" dx="0">n</tspan><tspan x="47" y="9" dx="0">d</tspan><tspan x="52.3333" y="9" dx="0">u</tspan><tspan x="57.6667" y="9" dx="0">i</tspan><tspan x="60" y="9" dx="0">d</tspan><tspan x="65.3333" y="9" dx="0">i</tspan><tspan x="67.6667" y="9" dx="0">n</tspan><tspan x="73" y="9" dx="0">g</tspan></text><g transform="matrix(1 0 0 -1 409 467)"><rect x="0" y="-13" width="49" height="13" stroke="none" fill="#FFFFFF"/></g><text stroke="none" fill="#000000" font-size="10" transform="translate(409 467)"><tspan x="0" y="9" dx="0">«</tspan><tspan x="5" y="9" dx="0">R</tspan><tspan x="10.3333" y="9" dx="0">e</tspan><tspan x="15" y="9" dx="0">l</tspan><tspan x="17.3333" y="9" dx="0">a</tspan><tspan x="22" y="9" dx="0 0">ti</tspan><tspan x="27.6667" y="9" dx="0">e</tspan><tspan x="32.6667" y="9" dx="0">r</tspan><tspan x="36" y="9" dx="0">o</tspan><tspan x="41.3333" y="9" dx="0">l</tspan><tspan x="43.6667" y="9" dx="0">»</tspan></text><g transform="matrix(1 0 0 -1 387 495)"><rect x="0" y="-13" width="17" height="13" stroke="none" fill="#FFFFFF"/></g><text stroke="none" fill="#000000" font-size="10" transform="translate(387 495)"><tspan x="0" y="9" dx="0">1..*</tspan></text></g></g></g></g></svg>