<svg width="613.327" height="150.884" viewBox="151.494 188.555 459.995 113.163" xmlns="http://www.w3.org/2000/svg" xmlns:xlink="http://www.w3.org/1999/xlink" overflow="hidden"><g transform="matrix(1 0 0 -1 0 841)"><g stroke="#000000" stroke-linecap="round" stroke-linejoin="round" stroke-miterlimit="3" fill="none" fill-rule="evenodd" font-weight="400" baseline-shift="0"><g transform="matrix(0.75 0 0 0.75 0 841.65)"><g font-family="CalibriUnicode" font-size="13" transform="scale(0.957919 -0.959633)"><path d="M632 282C632 277 632 277 637 277L835 277C840 277 840 277 840 282L840 404C840 409 840 409 835 409L637 409C632 409 632 409 632 404L632 282" stroke="none" fill="#DFDFDF"/><path d="M629 279C629 274 629 274 634 274L832 274C837 274 837 274 837 279L837 401C837 406 837 406 832 406L634 406C629 406 629 406 629 401L629 279" stroke="none" fill="#FFE4E1"/><path d="M629 279C629 274 629 274 634 274L832 274C837 274 837 274 837 279L837 401C837 406 837 406 832 406L634 406C629 406 629 406 629 401L629 279M629 279C629 274 629 274 634 274L832 274C837 274 837 274 837 279L837 401C837 406 837 406 832 406L634 406C629 406 629 406 629 401L629 279"/><text stroke="none" fill="#000000" font-style="italic" transform="translate(781 277)"><tspan x="0" y="13" dx="0">OWobject</tspan></text><text stroke="none" fill="#000000" transform="translate(697 298)"><tspan x="0" y="13" dx="0">«</tspan><tspan x="6" y="13" dx="0">O</tspan><tspan x="15" y="13" dx="0">b</tspan><tspan x="22" y="13" dx="0">j</tspan><tspan x="25" y="13" dx="0">e</tspan><tspan x="32" y="13" dx="0">c</tspan><tspan x="38" y="13" dx="0 0">tt</tspan><tspan x="46" y="13" dx="0">y</tspan><tspan x="51" y="13" dx="0">p</tspan><tspan x="58" y="13" dx="0">e</tspan><tspan x="66" y="13" dx="0">»</tspan></text><text stroke="none" fill="#000000" font-style="italic" font-weight="700" transform="translate(694 313)"><tspan x="0" y="13" dx="0">L</tspan><tspan x="5" y="13" dx="0">o</tspan><tspan x="11" y="13" dx="0">c</tspan><tspan x="17" y="13" dx="0">a</tspan><tspan x="23" y="13" dx="0 0">ti</tspan><tspan x="30" y="13" dx="0">e</tspan><tspan x="37" y="13" dx="0">:</tspan><tspan x="40" y="13" dx="0">:</tspan><tspan x="43" y="13" dx="0">L</tspan><tspan x="48" y="13" dx="0">o</tspan><tspan x="54" y="13" dx="0">c</tspan><tspan x="59" y="13" dx="0">a</tspan><tspan x="66" y="13" dx="0 0">ti</tspan><tspan x="73" y="13" dx="0">e</tspan></text><path d="M629 333 837 333"/><text stroke="none" fill="#000000" transform="translate(642 341)"><tspan x="0" y="13" dx="0">«</tspan><tspan x="6" y="13" dx="0">A</tspan><tspan x="14" y="13" dx="0 0">tt</tspan><tspan x="22" y="13" dx="0">r</tspan><tspan x="26" y="13" dx="0">i</tspan><tspan x="30" y="13" dx="0">b</tspan><tspan x="38" y="13" dx="0">u</tspan><tspan x="45" y="13" dx="0">u</tspan><tspan x="52" y="13" dx="0">t</tspan><tspan x="56" y="13" dx="0">s</tspan><tspan x="63" y="13" dx="0">o</tspan><tspan x="70" y="13" dx="0">o</tspan><tspan x="77" y="13" dx="0">r</tspan><tspan x="81" y="13" dx="0">t</tspan><tspan x="86" y="13" dx="0">»</tspan></text><text stroke="none" fill="#2F4F4F" transform="translate(634 356)"><tspan x="0" y="13" dx="0">+</tspan></text><text stroke="none" fill="#2F4F4F" transform="translate(655 356)"><tspan x="0" y="13" dx="0">i</tspan><tspan x="4" y="13" dx="0">d</tspan><tspan x="11" y="13" dx="0">e</tspan><tspan x="19" y="13" dx="0">n</tspan><tspan x="26" y="13" dx="0 0">ti</tspan><tspan x="34" y="13" dx="0 0">fi</tspan><tspan x="43" y="13" dx="0">c</tspan><tspan x="48" y="13" dx="0">a</tspan><tspan x="55" y="13" dx="0 0">ti</tspan><tspan x="64" y="13" dx="0">e</tspan><tspan x="71" y="13" dx="0">:</tspan><tspan x="74" y="13" dx="0"> </tspan><tspan x="77" y="13" dx="0">N</tspan><tspan x="86" y="13" dx="0">E</tspan><tspan x="92" y="13" dx="0">N</tspan><tspan x="100" y="13" dx="0">3</tspan><tspan x="106" y="13" dx="0">6</tspan><tspan x="113" y="13" dx="0">1</tspan><tspan x="119" y="13" dx="0">0</tspan><tspan x="125" y="13" dx="0">I</tspan><tspan x="129" y="13" dx="0">D</tspan><tspan x="138" y="13" dx="0">_</tspan><tspan x="144" y="13" dx="0">L</tspan><tspan x="149" y="13" dx="0">o</tspan><tspan x="156" y="13" dx="0">c</tspan><tspan x="162" y="13" dx="0">a</tspan><tspan x="169" y="13" dx="0 0">ti</tspan><tspan x="177" y="13" dx="0">e</tspan></text><text stroke="none" fill="#2F4F4F" transform="translate(634 371)"><tspan x="0" y="13" dx="0">+</tspan></text><text stroke="none" fill="#2F4F4F" transform="translate(655 371)"><tspan x="0" y="13" dx="0">noemer: CharacterString [0..1]</tspan></text><path d="M225 282C225 277 225 277 230 277L421 277C426 277 426 277 426 282L426 404C426 409 426 409 421 409L230 409C225 409 225 409 225 404L225 282" stroke="none" fill="#DFDFDF"/><path d="M222 279C222 274 222 274 227 274L418 274C423 274 423 274 423 279L423 401C423 406 423 406 418 406L227 406C222 406 222 406 222 401L222 279" stroke="none" stroke-width="2" fill="#FFE4E1"/><path d="M222 279C222 274 222 274 227 274L418 274C423 274 423 274 423 279L423 401C423 406 423 406 418 406L227 406C222 406 222 406 222 401L222 279M222 279C222 274 222 274 227 274L418 274C423 274 423 274 423 279L423 401C423 406 423 406 418 406L227 406C222 406 222 406 222 401L222 279" stroke-width="2"/><text stroke="none" fill="#000000" font-style="italic" transform="translate(367 277)"><tspan x="0" y="13" dx="0">OWobject</tspan></text><text stroke="none" fill="#000000" transform="translate(287 298)"><tspan x="0" y="13" dx="0">«</tspan><tspan x="6" y="13" dx="0">O</tspan><tspan x="15" y="13" dx="0">b</tspan><tspan x="22" y="13" dx="0">j</tspan><tspan x="25" y="13" dx="0">e</tspan><tspan x="32" y="13" dx="0">c</tspan><tspan x="38" y="13" dx="0 0">tt</tspan><tspan x="46" y="13" dx="0">y</tspan><tspan x="51" y="13" dx="0">p</tspan><tspan x="58" y="13" dx="0">e</tspan><tspan x="66" y="13" dx="0">»</tspan></text><text stroke="none" fill="#000000" font-weight="700" transform="translate(311 313)"><tspan x="0" y="13" dx="0">Pons</tspan></text><path d="M222 333 423 333" stroke-width="2"/><text stroke="none" fill="#000000" transform="translate(235 341)"><tspan x="0" y="13" dx="0">«</tspan><tspan x="6" y="13" dx="0">A</tspan><tspan x="14" y="13" dx="0 0">tt</tspan><tspan x="22" y="13" dx="0">r</tspan><tspan x="26" y="13" dx="0">i</tspan><tspan x="30" y="13" dx="0">b</tspan><tspan x="38" y="13" dx="0">u</tspan><tspan x="45" y="13" dx="0">u</tspan><tspan x="52" y="13" dx="0">t</tspan><tspan x="56" y="13" dx="0">s</tspan><tspan x="63" y="13" dx="0">o</tspan><tspan x="70" y="13" dx="0">o</tspan><tspan x="77" y="13" dx="0">r</tspan><tspan x="81" y="13" dx="0">t</tspan><tspan x="86" y="13" dx="0">»</tspan></text><text stroke="none" fill="#2F4F4F" transform="translate(227 356)"><tspan x="0" y="13" dx="0">+</tspan></text><text stroke="none" fill="#2F4F4F" transform="translate(248 356)"><tspan x="0" y="13" dx="0">i</tspan><tspan x="4" y="13" dx="0">d</tspan><tspan x="11" y="13" dx="0">e</tspan><tspan x="19" y="13" dx="0">n</tspan><tspan x="26" y="13" dx="0 0">ti</tspan><tspan x="34" y="13" dx="0 0">fi</tspan><tspan x="43" y="13" dx="0">c</tspan><tspan x="48" y="13" dx="0">a</tspan><tspan x="55" y="13" dx="0 0">ti</tspan><tspan x="64" y="13" dx="0">e</tspan><tspan x="71" y="13" dx="0">:</tspan><tspan x="74" y="13" dx="0"> </tspan><tspan x="77" y="13" dx="0">N</tspan><tspan x="86" y="13" dx="0">E</tspan><tspan x="92" y="13" dx="0">N</tspan><tspan x="100" y="13" dx="0">3</tspan><tspan x="106" y="13" dx="0">6</tspan><tspan x="113" y="13" dx="0">1</tspan><tspan x="119" y="13" dx="0">0</tspan><tspan x="125" y="13" dx="0">I</tspan><tspan x="129" y="13" dx="0">D</tspan><tspan x="138" y="13" dx="0"> </tspan><tspan x="141" y="13" dx="0">{</tspan><tspan x="145" y="13" dx="0">i</tspan><tspan x="149" y="13" dx="0">d</tspan><tspan x="156" y="13" dx="0">}</tspan></text><path d="M425 344 629 344M629 344 614 350M629 344 614 338"/><g transform="matrix(1 0 0 -1 516 330)"><rect x="0" y="-13" width="24" height="13" stroke="none" fill="#FFFFFF"/></g><text stroke="none" fill="#000000" font-size="10" transform="translate(516 330)"><tspan x="0" y="9" dx="0">bevat</tspan></text><g transform="matrix(1 0 0 -1 525 350)"><rect x="0" y="-13" width="78" height="13" stroke="none" fill="#FFFFFF"/></g><text stroke="none" fill="#000000" font-size="10" transform="translate(525 350)"><tspan x="0" y="9" dx="0">+</tspan><tspan x="4.66667" y="9" dx="0">l</tspan><tspan x="7" y="9" dx="0">o</tspan><tspan x="12" y="9" dx="0">c</tspan><tspan x="16.3333" y="9" dx="0">a</tspan><tspan x="21" y="9" dx="0 0">ti</tspan><tspan x="26.6667" y="9" dx="0">e</tspan><tspan x="31.6667" y="9" dx="0">a</tspan><tspan x="36.6667" y="9" dx="0">a</tspan><tspan x="41.6667" y="9" dx="0">n</tspan><tspan x="47" y="9" dx="0">d</tspan><tspan x="52.3333" y="9" dx="0">u</tspan><tspan x="57.6667" y="9" dx="0">i</tspan><tspan x="60" y="9" dx="0">d</tspan><tspan x="65.3333" y="9" dx="0">i</tspan><tspan x="67.6667" y="9" dx="0">n</tspan><tspan x="73" y="9" dx="0">g</tspan></text><g transform="matrix(1 0 0 -1 538 363)"><rect x="0" y="-13" width="49" height="13" stroke="none" fill="#FFFFFF"/></g><text stroke="none" fill="#000000" font-size="10" transform="translate(538 363)"><tspan x="0" y="9" dx="0">«</tspan><tspan x="5" y="9" dx="0">R</tspan><tspan x="10.3333" y="9" dx="0">e</tspan><tspan x="15" y="9" dx="0">l</tspan><tspan x="17.3333" y="9" dx="0">a</tspan><tspan x="22" y="9" dx="0 0">ti</tspan><tspan x="27.6667" y="9" dx="0">e</tspan><tspan x="32.6667" y="9" dx="0">r</tspan><tspan x="36" y="9" dx="0">o</tspan><tspan x="41.3333" y="9" dx="0">l</tspan><tspan x="43.6667" y="9" dx="0">»</tspan></text><g transform="matrix(1 0 0 -1 621 349)"><rect x="0" y="-13" width="5" height="13" stroke="none" fill="#FFFFFF"/></g><text stroke="none" fill="#000000" font-size="10" transform="translate(621 349)"><tspan x="0" y="9" dx="0">1</tspan></text></g></g></g></g></svg>