<svg width="591.267" height="153.763" viewBox="66.7139 177.759 443.45 115.322" xmlns="http://www.w3.org/2000/svg" xmlns:xlink="http://www.w3.org/1999/xlink" overflow="hidden"><g transform="matrix(1 0 0 -1 0 841)"><g stroke="#000000" stroke-linecap="round" stroke-linejoin="round" stroke-miterlimit="3" fill="none" fill-rule="evenodd" font-weight="400" baseline-shift="0"><g transform="matrix(0.75 0 0 0.75 0 841.65)"><g font-family="CalibriUnicode" font-size="13" transform="scale(0.957871 -0.959633)"><path d="M491 269C491 264 491 264 496 264L694 264C699 264 699 264 699 269L699 391C699 396 699 396 694 396L496 396C491 396 491 396 491 391L491 269" stroke="none" fill="#DFDFDF"/><path d="M488 266C488 261 488 261 493 261L691 261C696 261 696 261 696 266L696 388C696 393 696 393 691 393L493 393C488 393 488 393 488 388L488 266" stroke="none" fill="#FFE4E1"/><path d="M488 266C488 261 488 261 493 261L691 261C696 261 696 261 696 266L696 388C696 393 696 393 691 393L493 393C488 393 488 393 488 388L488 266M488 266C488 261 488 261 493 261L691 261C696 261 696 261 696 266L696 388C696 393 696 393 691 393L493 393C488 393 488 393 488 388L488 266"/><text stroke="none" fill="#000000" font-style="italic" transform="translate(640 264)"><tspan x="0" y="13" dx="0">OWobject</tspan></text><text stroke="none" fill="#000000" transform="translate(556 285)"><tspan x="0" y="13" dx="0">«</tspan><tspan x="6" y="13" dx="0">O</tspan><tspan x="15" y="13" dx="0">b</tspan><tspan x="22" y="13" dx="0">j</tspan><tspan x="25" y="13" dx="0">e</tspan><tspan x="32" y="13" dx="0">c</tspan><tspan x="38" y="13" dx="0 0">tt</tspan><tspan x="46" y="13" dx="0">y</tspan><tspan x="51" y="13" dx="0">p</tspan><tspan x="58" y="13" dx="0">e</tspan><tspan x="66" y="13" dx="0">»</tspan></text><text stroke="none" fill="#000000" font-style="italic" font-weight="700" transform="translate(553 300)"><tspan x="0" y="13" dx="0">L</tspan><tspan x="5" y="13" dx="0">o</tspan><tspan x="11" y="13" dx="0">c</tspan><tspan x="17" y="13" dx="0">a</tspan><tspan x="23" y="13" dx="0 0">ti</tspan><tspan x="30" y="13" dx="0">e</tspan><tspan x="37" y="13" dx="0">:</tspan><tspan x="40" y="13" dx="0">:</tspan><tspan x="43" y="13" dx="0">L</tspan><tspan x="48" y="13" dx="0">o</tspan><tspan x="54" y="13" dx="0">c</tspan><tspan x="59" y="13" dx="0">a</tspan><tspan x="66" y="13" dx="0 0">ti</tspan><tspan x="73" y="13" dx="0">e</tspan></text><path d="M488 320 696 320"/><text stroke="none" fill="#000000" transform="translate(501 328)"><tspan x="0" y="13" dx="0">«</tspan><tspan x="6" y="13" dx="0">A</tspan><tspan x="14" y="13" dx="0 0">tt</tspan><tspan x="22" y="13" dx="0">r</tspan><tspan x="26" y="13" dx="0">i</tspan><tspan x="30" y="13" dx="0">b</tspan><tspan x="38" y="13" dx="0">u</tspan><tspan x="45" y="13" dx="0">u</tspan><tspan x="52" y="13" dx="0">t</tspan><tspan x="56" y="13" dx="0">s</tspan><tspan x="63" y="13" dx="0">o</tspan><tspan x="70" y="13" dx="0">o</tspan><tspan x="77" y="13" dx="0">r</tspan><tspan x="81" y="13" dx="0">t</tspan><tspan x="86" y="13" dx="0">»</tspan></text><text stroke="none" fill="#2F4F4F" transform="translate(493 343)"><tspan x="0" y="13" dx="0">+</tspan></text><text stroke="none" fill="#2F4F4F" transform="translate(514 343)"><tspan x="0" y="13" dx="0">i</tspan><tspan x="4" y="13" dx="0">d</tspan><tspan x="11" y="13" dx="0">e</tspan><tspan x="19" y="13" dx="0">n</tspan><tspan x="26" y="13" dx="0 0">ti</tspan><tspan x="34" y="13" dx="0 0">fi</tspan><tspan x="43" y="13" dx="0">c</tspan><tspan x="48" y="13" dx="0">a</tspan><tspan x="55" y="13" dx="0 0">ti</tspan><tspan x="64" y="13" dx="0">e</tspan><tspan x="71" y="13" dx="0">:</tspan><tspan x="74" y="13" dx="0"> </tspan><tspan x="77" y="13" dx="0">N</tspan><tspan x="86" y="13" dx="0">E</tspan><tspan x="92" y="13" dx="0">N</tspan><tspan x="100" y="13" dx="0">3</tspan><tspan x="106" y="13" dx="0">6</tspan><tspan x="113" y="13" dx="0">1</tspan><tspan x="119" y="13" dx="0">0</tspan><tspan x="125" y="13" dx="0">I</tspan><tspan x="129" y="13" dx="0">D</tspan><tspan x="138" y="13" dx="0">_</tspan><tspan x="144" y="13" dx="0">L</tspan><tspan x="149" y="13" dx="0">o</tspan><tspan x="156" y="13" dx="0">c</tspan><tspan x="162" y="13" dx="0">a</tspan><tspan x="169" y="13" dx="0 0">ti</tspan><tspan x="177" y="13" dx="0">e</tspan></text><text stroke="none" fill="#2F4F4F" transform="translate(493 358)"><tspan x="0" y="13" dx="0">+</tspan></text><text stroke="none" fill="#2F4F4F" transform="translate(514 358)"><tspan x="0" y="13" dx="0">noemer: CharacterString [0..1]</tspan></text><path d="M107 267C107 262 107 262 112 262L275 262C280 262 280 262 280 267L280 392C280 397 280 397 275 397L112 397C107 397 107 397 107 392L107 267" stroke="none" fill="#DFDFDF"/><path d="M104 264C104 259 104 259 109 259L272 259C277 259 277 259 277 264L277 389C277 394 277 394 272 394L109 394C104 394 104 394 104 389L104 264" stroke="none" fill="#FFE4E1"/><path d="M104 264C104 259 104 259 109 259L272 259C277 259 277 259 277 264L277 389C277 394 277 394 272 394L109 394C104 394 104 394 104 389L104 264M104 264C104 259 104 259 109 259L272 259C277 259 277 259 277 264L277 389C277 394 277 394 272 394L109 394C104 394 104 394 104 389L104 264"/><text stroke="none" fill="#000000" font-style="italic" transform="translate(221 262)"><tspan x="0" y="13" dx="0">OWobject</tspan></text><text stroke="none" fill="#000000" transform="translate(155 283)"><tspan x="0" y="13" dx="0">«</tspan><tspan x="6" y="13" dx="0">O</tspan><tspan x="15" y="13" dx="0">b</tspan><tspan x="22" y="13" dx="0">j</tspan><tspan x="25" y="13" dx="0">e</tspan><tspan x="32" y="13" dx="0">c</tspan><tspan x="38" y="13" dx="0 0">tt</tspan><tspan x="46" y="13" dx="0">y</tspan><tspan x="51" y="13" dx="0">p</tspan><tspan x="58" y="13" dx="0">e</tspan><tspan x="66" y="13" dx="0">»</tspan></text><text stroke="none" fill="#000000" font-weight="700" transform="translate(149 298)"><tspan x="0" y="13" dx="0">Regelingsgebied</tspan></text><path d="M104 318 277 318"/><text stroke="none" fill="#000000" transform="translate(117 326)"><tspan x="0" y="13" dx="0">«</tspan><tspan x="6" y="13" dx="0">A</tspan><tspan x="14" y="13" dx="0 0">tt</tspan><tspan x="22" y="13" dx="0">r</tspan><tspan x="26" y="13" dx="0">i</tspan><tspan x="30" y="13" dx="0">b</tspan><tspan x="38" y="13" dx="0">u</tspan><tspan x="45" y="13" dx="0">u</tspan><tspan x="52" y="13" dx="0">t</tspan><tspan x="56" y="13" dx="0">s</tspan><tspan x="63" y="13" dx="0">o</tspan><tspan x="70" y="13" dx="0">o</tspan><tspan x="77" y="13" dx="0">r</tspan><tspan x="81" y="13" dx="0">t</tspan><tspan x="86" y="13" dx="0">»</tspan></text><text stroke="none" fill="#2F4F4F" transform="translate(109 341)"><tspan x="0" y="13" dx="0">+</tspan></text><text stroke="none" fill="#2F4F4F" transform="translate(130 341)"><tspan x="0" y="13" dx="0">i</tspan><tspan x="4" y="13" dx="0">d</tspan><tspan x="11" y="13" dx="0">e</tspan><tspan x="19" y="13" dx="0">n</tspan><tspan x="26" y="13" dx="0 0">ti</tspan><tspan x="34" y="13" dx="0 0">fi</tspan><tspan x="43" y="13" dx="0">c</tspan><tspan x="48" y="13" dx="0">a</tspan><tspan x="55" y="13" dx="0 0">ti</tspan><tspan x="64" y="13" dx="0">e</tspan><tspan x="71" y="13" dx="0">:</tspan><tspan x="74" y="13" dx="0"> </tspan><tspan x="77" y="13" dx="0">N</tspan><tspan x="86" y="13" dx="0">E</tspan><tspan x="92" y="13" dx="0">N</tspan><tspan x="100" y="13" dx="0">3</tspan><tspan x="106" y="13" dx="0">6</tspan><tspan x="113" y="13" dx="0">1</tspan><tspan x="119" y="13" dx="0">0</tspan><tspan x="125" y="13" dx="0">I</tspan><tspan x="129" y="13" dx="0">D</tspan></text><path d="M278 327 488 327M488 327 473 333M488 327 473 321"/><g transform="matrix(1 0 0 -1 372 313)"><rect x="0" y="-13" width="24" height="13" stroke="none" fill="#FFFFFF"/></g><text stroke="none" fill="#000000" font-size="10" transform="translate(372 313)"><tspan x="0" y="9" dx="0">bevat</tspan></text><g transform="matrix(1 0 0 -1 355 330)"><rect x="0" y="-13" width="59" height="13" stroke="none" fill="#FFFFFF"/></g><text stroke="none" fill="#000000" font-size="10" transform="translate(355 330)"><tspan x="0" y="9" dx="0">«</tspan><tspan x="5" y="9" dx="0">R</tspan><tspan x="10.3333" y="9" dx="0">e</tspan><tspan x="15" y="9" dx="0">l</tspan><tspan x="17.3333" y="9" dx="0">a</tspan><tspan x="22" y="9" dx="0 0">ti</tspan><tspan x="27.6667" y="9" dx="0">e</tspan><tspan x="32.6667" y="9" dx="0">s</tspan><tspan x="36.3333" y="9" dx="0">o</tspan><tspan x="41.6667" y="9" dx="0">o</tspan><tspan x="47" y="9" dx="0">r</tspan><tspan x="50.3333" y="9" dx="0">t</tspan><tspan x="53.6667" y="9" dx="0">»</tspan></text><g transform="matrix(1 0 0 -1 401 348)"><rect x="0" y="-13" width="78" height="13" stroke="none" fill="#FFFFFF"/></g><text stroke="none" fill="#000000" font-size="10" transform="translate(401 348)"><tspan x="0" y="9" dx="0">+</tspan><tspan x="4.66667" y="9" dx="0">l</tspan><tspan x="7" y="9" dx="0">o</tspan><tspan x="12" y="9" dx="0">c</tspan><tspan x="16.3333" y="9" dx="0">a</tspan><tspan x="21" y="9" dx="0 0">ti</tspan><tspan x="26.6667" y="9" dx="0">e</tspan><tspan x="31.6667" y="9" dx="0">a</tspan><tspan x="36.6667" y="9" dx="0">a</tspan><tspan x="41.6667" y="9" dx="0">n</tspan><tspan x="47" y="9" dx="0">d</tspan><tspan x="52.3333" y="9" dx="0">u</tspan><tspan x="57.6667" y="9" dx="0">i</tspan><tspan x="60" y="9" dx="0">d</tspan><tspan x="65.3333" y="9" dx="0">i</tspan><tspan x="67.6667" y="9" dx="0">n</tspan><tspan x="73" y="9" dx="0">g</tspan></text><g transform="matrix(1 0 0 -1 414 361)"><rect x="0" y="-13" width="49" height="13" stroke="none" fill="#FFFFFF"/></g><text stroke="none" fill="#000000" font-size="10" transform="translate(414 361)"><tspan x="0" y="9" dx="0">«</tspan><tspan x="5" y="9" dx="0">R</tspan><tspan x="10.3333" y="9" dx="0">e</tspan><tspan x="15" y="9" dx="0">l</tspan><tspan x="17.3333" y="9" dx="0">a</tspan><tspan x="22" y="9" dx="0 0">ti</tspan><tspan x="27.6667" y="9" dx="0">e</tspan><tspan x="32.6667" y="9" dx="0">r</tspan><tspan x="36" y="9" dx="0">o</tspan><tspan x="41.3333" y="9" dx="0">l</tspan><tspan x="43.6667" y="9" dx="0">»</tspan></text><g transform="matrix(1 0 0 -1 480 332)"><rect x="0" y="-13" width="5" height="13" stroke="none" fill="#FFFFFF"/></g><text stroke="none" fill="#000000" font-size="10" transform="translate(480 332)"><tspan x="0" y="9" dx="0">1</tspan></text></g></g></g></g></svg>